<?xml version="1.0" encoding="UTF-8" standalone="no"?>
<!-- Created with Inkscape (http://www.inkscape.org/) -->

<svg
   width="284cm"
   height="147cm"
   viewBox="0 0 2840 1470"
   version="1.1"
   id="svg8914"
   inkscape:version="1.1.1 (c3084ef, 2021-09-22)"
   sodipodi:docname="3-biomes.svg"
   xmlns:inkscape="http://www.inkscape.org/namespaces/inkscape"
   xmlns:sodipodi="http://sodipodi.sourceforge.net/DTD/sodipodi-0.dtd"
   xmlns="http://www.w3.org/2000/svg"
   xmlns:svg="http://www.w3.org/2000/svg">
  <sodipodi:namedview
     id="namedview8916"
     pagecolor="#ffffff"
     bordercolor="#666666"
     borderopacity="1.0"
     inkscape:pageshadow="2"
     inkscape:pageopacity="0.0"
     inkscape:pagecheckerboard="0"
     inkscape:document-units="mm"
     showgrid="false"
     units="cm"
     inkscape:zoom="0.078979952"
     inkscape:cx="7767.794"
     inkscape:cy="3925.0467"
     inkscape:window-width="1440"
     inkscape:window-height="776"
     inkscape:window-x="0"
     inkscape:window-y="25"
     inkscape:window-maximized="0"
     inkscape:current-layer="layer1" />
  <defs
     id="defs8911" />
  <g
     inkscape:label="Layer 1"
     inkscape:groupmode="layer"
     id="layer1">
    <path
       style="display:inline;fill:none;stroke:#000000;stroke-width:0.264583px;stroke-linecap:butt;stroke-linejoin:miter;stroke-opacity:1"
       d="m 362.29299,326.48855 c -0.3844,4.7213 -9.4794,5.5983 -5.269,11.3109 1.0036,4.7969 -3.8154,8.036 -3.2979,12.806 -0.4469,6.1861 -0.2514,12.6569 1.7797,18.5455 3.0135,3.9124 3.3615,8.6673 4.9951,13.0538 1.7834,5.2829 3.5113,10.562 4.3859,16.0738 2.7546,4.2462 5.8385,8.2785 6.7218,13.5234 2.8866,3.5053 7.3163,6.412 8.4048,11.1627 3.1328,3.7509 4.2922,10.6306 10.7034,9.7941 6.4554,-0.3233 12.9197,-1.322 19.2378,0.5941 5.1147,0.4025 9.7121,-2.9484 14.9182,-1.1671 4.7451,-1.0621 9.4006,0.3404 14.2682,-0.1835 5.827,0.1916 9.9981,-4.3425 15.3522,-5.657 6.3125,-2.0853 12.7701,-3.987 19.3669,-2.9574 5.6016,-2.1429 2.0595,-8.185 2.5132,-12.3606 0.5304,-7.6093 2.1542,-15.1031 2.2887,-22.747 2.8175,-4.7629 -0.8961,-9.5165 -0.9199,-14.0876 2.7432,-4.8121 4.9865,-9.8925 2.5578,-15.4087 -1.249,-5.6977 -0.6839,-11.4742 0.4509,-17.1279 0.157,-1.3078 0.2407,-2.6278 0.1765,-3.9449"
       id="path442" />
    <path
       style="display:inline;fill:none;stroke:#000000;stroke-width:0.264583px;stroke-linecap:butt;stroke-linejoin:miter;stroke-opacity:1"
       d="m 427.53269,539.52615 c -0.1386,5.4451 3.962,9.8661 6.4007,14.4104 4.0001,5.1853 9.4782,10.004 16.0828,11.2059 4.7868,-0.059 9.4219,-2.4544 14.3242,-1.2975 5.3368,0.3565 10.2918,3.0805 15.5981,3.1753 6.4874,-0.4967 13.1969,-3.2847 17.4117,-8.2856 1.5613,-4.5916 5.1557,-8.1429 6.3758,-12.7898 1.3772,-5.2757 0.9242,-11.7558 -2.9424,-15.8699 -3.1976,-1.9987 -6.1714,-3.7184 -9.2479,-5.8651"
       id="path444" />
    <path
       style="display:inline;fill:none;stroke:#000000;stroke-width:0.264583px;stroke-linecap:butt;stroke-linejoin:miter;stroke-opacity:1"
       d="m 433.86879,688.35855 c 3.725,-3.3208 8.0706,-5.3844 12.7115,-6.7061 4.5174,-2.4161 9.6791,-2.4085 14.5413,-3.4631 5.188,0.6967 9.5399,-5.2017 14.4802,-1.5121 9.09,5.5033 20.0311,2.8456 30.0126,2.9247 7.1897,-0.2419 13.4654,-5.8223 20.8169,-4.6339 5.5423,1.2086 11.3583,-0.5369 16.7691,1.6256 3.2915,0.2328 7.4772,-0.2767 9.5825,2.8967"
       id="path446" />
    <path
       style="display:inline;fill:none;stroke:#000000;stroke-width:0.264583px;stroke-linecap:butt;stroke-linejoin:miter;stroke-opacity:1"
       d="m 511.09029,700.68295 c 1.0983,5.0703 7.4408,8.7033 4.3792,14.4773 1.4319,4.1887 2.4101,9.5803 5.7058,12.4352 5.9896,1.6915 10.7948,-4.5881 16.9774,-2.6718 4.5196,1.2148 12.4138,-3.2084 13.6912,3.6461 -2.2428,4.3656 -1.1557,10.1444 -4.3126,14.0274 -4.8901,3.4836 -6.4312,9.947 -11.3789,13.4411 -4.3185,4.4572 -2.964,11.5403 1.4585,15.3709 5.34,4.0394 5.403,11.8019 1.4701,16.857 -4.3944,6.363 -9.7803,12.2193 -16.9165,15.5069 -4.224,3.3862 -9.6266,5.438 -12.7701,10.0713 -4.7477,2.917 -7.822,8.2659 -4.338,13.3909 0.7561,5.1681 4.7803,8.3996 9.8148,8.871 4.7745,1.8187 5.7733,8.1826 3.6806,12.4054 -1.9989,5.2555 1.837,12.6184 -3.8343,16.6016 -5.0998,3.9345 -2.582,12.138 0.2763,16.5737"
       id="path448" />
    <path
       style="display:inline;fill:none;stroke:#000000;stroke-width:0.264583px;stroke-linecap:butt;stroke-linejoin:miter;stroke-opacity:1"
       d="m 531.59169,885.17705 c -1.8345,7.8453 6.1587,15.524 1.708,23.0926 -3.6181,5.821 -8.8129,10.7832 -15.457,12.8578 -9.5525,3.8951 -19.7,6.7939 -30.0347,7.3091 -9.0913,-0.831 -18.5276,1.5578 -26.2038,6.4821 -6.133,4.4676 -4.5884,12.409 -5.6486,18.7634 -2.2013,5.7017 -6.2845,10.6771 -12.047,13.0398 -6.828,3.5395 -14.2596,5.6976 -21.9595,5.9925 -2.9535,-0.1469 -5.8543,1.4962 -8.7586,0.6569"
       id="path450" />
    <path
       style="display:inline;fill:none;stroke:#000000;stroke-width:0.264583px;stroke-linecap:butt;stroke-linejoin:miter;stroke-opacity:1"
       d="m 675.17399,1137.6571 c -2.0085,-4.6191 -4.6249,-13.3032 -11.1863,-11.2094 -5.8604,1.9932 -9.8225,7.2939 -11.432,13.1109 -2.1299,5.5988 -6.7626,10.3414 -5.7372,16.8272 -0.1349,6.5328 -1.4532,14.8479 4.4843,19.3527 2.9465,1.3178 6.1067,3.4454 9.4786,2.8528"
       id="path452" />
    <path
       style="display:inline;fill:none;stroke:#000000;stroke-width:0.264583px;stroke-linecap:butt;stroke-linejoin:miter;stroke-opacity:1"
       d="m 701.72039,1178.5961 c -4.6546,-5.8162 -12.7837,-8.9181 -15.004,-16.5507 0.663,-6.151 5.087,-11.2408 5.0087,-17.6274 2.6333,-10.3386 6.5198,-20.5077 6.7971,-31.2865 0.8911,-9.0231 4.093,-17.9738 10.5127,-24.5502 4.4821,-4.4331 9.2293,-8.8523 14.7582,-11.9137 5.1529,-2.3012 11.175,-0.07 16.0675,-3.2196 6.1396,-3.2283 12.9383,-7.756 20.1575,-5.3357 5.7289,3.2018 7.0622,11.0109 13.5836,13.3871 6.1985,2.1353 11.5702,5.5968 17.4637,8.2607 5.709,-0.3674 11.4333,-1.5917 16.9353,1.3422 6.9696,1.6717 15.3169,-0.267 18.9793,-6.9375 2.6678,-6.0914 8.8815,-7.8093 13.7082,-11.2972 7.0614,-7.0819 9.5472,-17.283 16.3788,-24.5519 2.3414,-4.5563 4.4821,-10.12 10.1109,-11.3444 6.8831,-2.0746 14.2385,-1.0907 21.2545,-0.3574 6.3176,1.0251 11.9142,4.6144 18.0537,6.0052 7.1461,0.3812 9.0792,8.2089 7.5162,14.0057 -1.3928,9.524 -10.175,15.0483 -16.4901,21.3376 -10.6675,9.0537 -10.9954,25.4636 -22.6229,33.6817 -5.4628,2.6993 -10.7629,5.7796 -15.581,9.5586 -7.1499,4.1744 -15.8135,4.0592 -23.178,7.653 -4.9274,1.8487 -11.0675,0.5834 -14.9224,4.8397 -3.6568,3.3799 -8.6243,4.8594 -11.9428,8.7251 -5.1088,4.8616 -10.163,9.998 -16.8585,12.6975 -6.9441,3.3411 -15.192,1.5527 -22.1617,4.9904 -9.44,3.671 -19.009,8.2127 -29.4116,7.572 -7.479,-0.2506 -14.4973,2.805 -19.6991,8.0771 -1.0124,0.8564 -1.9781,1.7798 -2.7823,2.8384"
       id="path529" />
    <path
       style="display:inline;fill:none;stroke:#000000;stroke-width:0.264583px;stroke-linecap:butt;stroke-linejoin:miter;stroke-opacity:1"
       d="m 981.35069,1189.6473 c 4.6551,3.5822 10.1056,6.1653 14.255,10.3317 3.2689,4.4956 4.89271,12.0347 12.05661,11.1741 5.6996,-0.1527 12.8472,-2.7346 16.8896,2.9358 3.639,4.411 4.6514,12.0232 -0.9064,15.422 -4.1101,3.669 -9.5489,5.9303 -15.1072,4.8439 -7.83,-0.1075 -15.30231,-2.8403 -22.36361,-5.9584 -7.9677,-1.6436 -14.7628,4.0543 -21.5107,7.2918 -7.3979,3.5514 -8.9025,12.36 -14.5864,17.3492 -6.7432,4.2844 -14.9496,1.9868 -22.4174,2.0123 -6.622,-0.6455 -14.9191,-1.7081 -18.3562,-8.2255 -2.9806,-6.7763 1.3339,-13.976 6.4063,-18.3866 1.8319,-2.1697 4.3572,-4.5654 4.1535,-7.641"
       id="path531" />
    <path
       style="display:inline;fill:none;stroke:#000000;stroke-width:0.264583px;stroke-linecap:butt;stroke-linejoin:miter;stroke-opacity:1"
       d="m 881.02499,523.09805 c -6.4543,5.3198 -4.7983,14.526 -4.9692,21.9431 0.093,13.5563 -3.9547,26.941 -2.0111,40.5258 1.1279,7.4752 2.8229,14.8812 4.7115,22.1842 0.8116,9.58 1.959,19.1337 2.9733,28.6833 0.1829,12.2434 -3.4679,24.7513 0.4928,36.757 2.0572,8.5406 6.9465,15.9015 10.8266,23.6436 3.7011,7.6991 4.688,16.387 8.3494,24.0659 3.2214,4.3084 4.4839,11.1417 10.5138,12.3771 4.3785,0.6951 10.3076,2.4593 13.4207,-1.8539 1.3052,-4.494 1.2079,-9.5894 1.1333,-14.3272 -1.4794,-9.8619 -0.8545,-20.4045 -5.9101,-29.3974 -3.5696,-4.9851 -6.3124,-10.382 -9.4767,-15.5841 -4.396,-5.7882 -4.3301,-13.2719 -6.7026,-19.8803 -2.5915,-8.9851 -3.1225,-18.3632 -2.677,-27.6662 -0.4796,-15.0793 1.5422,-30.2902 -1.303,-45.2457 -1.4033,-10.0196 -2.2168,-20.1421 -2.9096,-30.2269 0.8538,-5.9311 0.7052,-11.187 1.1303,-16.9474 1.1255,-4.2619 -0.026,-10.684 -5.6016,-10.5665 -4.0846,-0.258 -7.8845,2.2546 -11.9908,1.5156 z"
       id="path533" />
    <path
       style="display:inline;fill:none;stroke:#000000;stroke-width:0.264583px;stroke-linecap:butt;stroke-linejoin:miter;stroke-opacity:1"
       d="m 1027.936,149.31795 c -8.8935,-0.5006 -17.8516,1.1925 -26.6959,-0.326 -6.93001,0.9969 -13.76951,-1.859 -20.68851,-0.4186 -10.1454,1.4195 -20.4594,-2.1871 -30.4661,0.726 -7.7135,0.9962 -15.0722,-2.3822 -22.7027,-2.8891 -7.5177,-1.0904 -16.6473,-1.1118 -22.3379,4.6952 -4.241,4.4359 2.7876,13.3851 -4.4744,16.0008 -8.3696,-2.0331 -15.4398,-9.1036 -24.5145,-7.9948 -5.7791,2.099 -4.6929,9.747 -8.3645,13.8241 -4.5864,5.9345 -10.0743,11.4552 -12.3546,18.8063 -2.149,5.4376 -1.7361,11.588 0.9683,16.7425 2.3276,8.4049 -2.2122,16.5528 -3.0742,24.8406 -1.5247,7.5286 -1.1654,15.2341 -0.097,22.7784 -0.4869,6.9918 -2.4,13.8069 -2.5104,20.8533 -0.9332,10.2287 -1.9037,20.4541 -3.8245,30.5594 -2.0505,10.5582 -2.7583,21.2857 -3.8949,31.9577 -1.1869,8.0967 -1.2007,16.326 -3.1112,24.312 -1.7198,7.9921 1.6726,17.3073 8.878,21.4433 5.2723,1.5285 11.0075,0.9067 16.4896,1.5333 5.5823,-0.5919 9.4135,-4.9016 13.1671,-8.5468 4.3917,-3.867 8.7301,-8.5647 10.4103,-14.2687 1.8232,-10.0819 -0.5688,-20.3864 1.0702,-30.5172 0.9638,-8.9582 2.7423,-18.0985 0.2731,-26.993 -1.3401,-8.273 -3.5762,-16.6897 -2.4793,-25.1253 1.6907,-7.3882 2.4368,-15.1391 5.2205,-22.1921 5.5668,-8.9645 6.5777,-20.4459 14.5837,-27.8905 4.4905,-5.5951 -0.6943,-14.2831 5.1975,-19.0931 4.5599,-3.7781 10.6606,-1.3485 15.976,-1.5275 6.7268,0.3371 13.2528,2.2276 19.5167,4.4666 8.4769,0.4172 16.4632,-3.7212 24.9823,-3.4213 6.5795,0.155 13.0288,2.3758 19.528,0.081 8.18521,-1.1627 16.50511,-2.5061 24.77691,-1.4947 6.41,0.1204 10.706,-5.5416 16.4467,-7.0888"
       id="path535" />
    <path
       style="display:inline;fill:none;stroke:#000000;stroke-width:0.264583px;stroke-linecap:butt;stroke-linejoin:miter;stroke-opacity:1"
       d="m 770.56199,145.57995 c 4.9894,-13.3655 6.3387,-29.3199 -1.318,-41.9801 -2.736,-5.224704 -8.4732,-7.115004 -13.9488,-7.590604 -7.6725,-1.376 -15.4396,-3.3109 -21.9385,-7.8111 -4.7639,-2.8298 -10.4531,-4.2471 -15.9455,-3.0444 -9.8077,1.3842 -19.2985,5.1561 -29.3356,4.6658 -11.2432,0.4715 -22.4138,3.1139 -33.693,2.1798 -6.3762,-1.032 -12.4792,-3.4147 -18.975,-3.7763 -5.3516,-0.5194 -10.788,-1.7011 -16.1,-0.2272 -8.5844,1.9058 -16.5144,5.9347 -25.0301,8.0753 -4.8823,1.9464 -9.6574,4.261004 -14.8143,5.388904 -5.4995,1.8162 -6.9643,7.5531 -7.4639,12.5875 -2.0789,6.0349 -6.2981,11.2273 -11.0919,15.3129 -5.3074,2.4633 -8.6638,7.0909 -11.8738,11.6226 -4.4179,3.5637 -2.1287,8.7827 2.77,9.9012 5.6919,2.8908 11.6395,6.2165 18.2403,5.8389 8.1212,-0.1686 16.2773,0.3122 24.3271,-1.1021 8.2028,-0.8002 16.2771,-4.0368 24.593,-2.6585 10.4751,1.3426 20.0289,6.5961 30.6229,7.3337 5.5943,0.9646 11.181,2.0479 16.894,1.7975 5.7697,-0.278 11.6258,0.3829 17.3249,-0.6438 5.0351,-1.9318 10.2496,-1.3359 15.4349,-0.9462 4.195,-0.3384 9.1647,-0.5997 12.0938,3.0248 4.9078,5.0201 4.5206,13.2714 10.3148,17.6577 5.2423,4.5617 11.7264,7.366 17.824,10.5391 5.6671,1.7417 11.6621,0.4873 17.4362,0.148 4.4265,-1.2267 11.2605,-1.5426 12.7756,-6.7193 0.2118,-5.1412 -5.3763,-7.8901 -6.2466,-12.7558 -2.095,-6.9072 -0.5081,-14.5305 3.1768,-20.6111 0.8225,-2.2934 1.5,-5.1032 3.9467,-6.2072 z"
       id="path11833" />
    <path
       style="display:inline;fill:none;stroke:#000000;stroke-width:0.264583px;stroke-linecap:butt;stroke-linejoin:miter;stroke-opacity:1"
       d="m 561.47179,169.51245 c 3.5321,-4.2594 8.7307,-7.9323 14.4446,-7.836 5.5428,0.7213 11.2565,2.0958 16.7544,0.3097 6.9894,-1.483 14.4178,-5.0526 21.5157,-2.1813 5.3307,3.3617 4.3302,10.4694 4.514,15.8856 0.4091,10.6549 3.052,21.0677 3.7323,31.6996 0.2015,4.7911 4.3138,7.7101 8.3164,9.4071 6.4037,2.4051 13.3722,1.112 20.0382,1.506 4.7882,-0.087 9.5497,0.616 14.1455,1.8847 7.975,0.9816 16.1015,-0.4892 24.0213,0.9599 5.124,0.7674 8.1072,6.3721 6.1285,11.0991 -2.3713,7.2655 -8.6033,13.1305 -8.4609,21.192 -0.1846,4.8517 1.1057,12.9961 -5.2812,14.2017 -5.1879,0.1265 -10.6352,-0.8619 -15.4703,1.6992 -6.7451,1.9454 -2.7054,10.378 -7.8672,13.5794 -4.4312,2.7911 -9.369,-0.7607 -13.5156,-2.4857 -4.431,-2.1192 -8.2672,-5.2952 -12.5067,-7.6798 -4.676,-1.9195 -9.4133,-3.7721 -13.7504,-6.3988 -5.6473,-1.9941 -9.0161,4.0635 -11.2251,8.1623 -2.9476,4.261 -8.0158,7.3629 -13.3257,6.5355 -7.5806,0.4769 -14.3782,4.242 -20.9175,7.78 -3.3856,4.1725 -10.4788,2.7827 -10.9301,-2.9495 -2.8474,-7.5122 -3.5664,-15.8952 -1.1686,-23.6332"
       id="path11772" />
    <path
       style="display:inline;fill:none;stroke:#000000;stroke-width:0.264583px;stroke-linecap:butt;stroke-linejoin:miter;stroke-opacity:1"
       d="m 608.84409,455.53545 c -3.4173,2.6626 -3.1431,7.4939 -2.57,11.341 0.6739,5.0841 2.0392,10.0434 2.8171,15.1097 1.9137,4.5291 6.5975,6.8979 10.761,8.9611 8.7003,2.6275 17.6307,-0.8917 26.4575,-0.2208 4.6522,0.2992 9.3099,0.2377 13.9646,0.1868 3.7102,0.09 7.4006,0.9292 10.7405,2.5363 3.7415,0.8017 7.3591,-0.9848 10.8756,-1.9789 6.3889,-3.0405 9.3804,-9.9951 11.6485,-16.2798 1.3767,-4.0302 2.3098,-9.1109 -0.5678,-12.7137 -3.5906,-3.8705 -9.2473,-4.0885 -13.7691,-6.3222 -6.8804,-3.034 -13.2748,-8.1656 -21.1107,-8.2234 -6.3987,-0.1275 -12.8963,0.3365 -18.9602,2.527 -4.8045,1.4374 -9.8148,1.9619 -14.8117,2.0101 -5.2548,0.3449 -10.5834,1.0065 -15.4753,3.0668 z"
       id="path12160" />
    <path
       style="display:inline;fill:none;stroke:#000000;stroke-width:0.264583px;stroke-linecap:butt;stroke-linejoin:miter;stroke-opacity:1"
       d="m 686.93419,874.11945 c -5.5735,1.8019 -11.7329,-2.2742 -17.019,0.9768 -5.4779,2.3302 -11.759,1.2429 -17.202,3.693 -7.3208,1.5602 -15.0559,0.5071 -22.1793,3.1071 -4.9731,0.8784 -10.9889,1.1941 -14.1156,5.7886 -5.0995,6.6836 -13.1246,11.5816 -15.2066,20.2147 -1.3034,5.7723 -4.4398,10.983 -5.0449,16.9365 -1.5127,7.8259 -4.2908,15.6799 -3.0939,23.7675 0.5976,11.9851 0.4541,24.1467 3.1843,35.8952 2.44,8.9457 6.5331,17.37015 11.2774,25.30095 3.1595,4.2247 9.0476,5.9528 14.0294,4.302 8.7916,-1.6156 17.8696,-3.8362 24.8962,-9.6864 8.5766,-6.54595 15.1971,-15.47395 19.3612,-25.40195 3.3914,-7.5728 7.5515,-14.7785 10.4141,-22.5864 2.8555,-7.2918 6.4127,-14.2961 8.6155,-21.8346 1.7433,-5.719 4.0103,-11.2814 5.7417,-16.9884 1.0944,-5.5358 1.857,-11.203 4.2283,-16.3795 2.1034,-6.7587 3.9785,-13.7332 4.2145,-20.835 0.369,-4.1588 -2.8853,-8.4774 -7.3381,-7.568 -1.6492,0.1486 -3.2434,0.6595 -4.7632,1.2979 z"
       id="path12511" />
    <path
       style="display:inline;fill:none;stroke:#000000;stroke-width:0.264583px;stroke-linecap:butt;stroke-linejoin:miter;stroke-opacity:1"
       d="m 777.48649,636.91975 c -6.6432,-1.3498 -13.6956,-1.5879 -20.198,0.5724 -4.4158,2.984 -4.8201,8.7158 -6.7337,13.2423 -1.9121,8.1422 -1.3746,16.6232 -3.1583,24.79 -0.5674,4.4158 0.3455,9.0691 3.077,12.6501 2.4425,4.0683 4.4079,9.3756 1.8944,13.8804 -2.1512,4.7906 -5.1627,9.6451 -4.5321,15.1209 -0.2946,5.1079 -3.4478,9.6562 -3.4161,14.7814 0.5985,4.919 5.4492,8.3164 10.1918,8.3887 4.6273,1.3553 8.6488,5.5381 13.7956,4.4918 4.0405,-2.1227 9.0213,-2.667 13.2237,-0.7107 5.557,0.8771 10.6432,-2.8268 14.1843,-6.7228 4.8142,-5.652 6.1821,-14.2527 2.4109,-20.8146 -1.779,-4.1738 -2.5534,-8.8764 -1.4152,-13.3219 0.4886,-5.9432 0.1463,-11.9883 1.5205,-17.8332 -0.09,-7.0877 -5.722,-12.833 -5.3374,-20.0151 -0.4869,-7.7436 2.117,-15.2739 5.4364,-22.1392 1.0789,-4.2804 -2.5685,-8.8971 -6.9952,-8.8047 -4.7395,-0.7787 -9.8068,-0.064 -13.9486,2.4442 z"
       id="path12513" />
    <path
       style="display:inline;fill:none;stroke:#000000;stroke-width:0.264583px;stroke-linecap:butt;stroke-linejoin:miter;stroke-opacity:1"
       d="m 1551.3583,1178.4975 c -6.0854,-3.6231 -12.4538,1.6337 -16.6448,5.8032 -6.1001,5.9126 -12.0536,12.8612 -13.4998,21.4924 -2.4642,6.8774 -2.0859,14.2716 -1.5094,21.4205 1.4538,6.9376 7.7152,11.5153 13.1177,15.4843 5.8362,2.5579 12.8098,2.9714 18.8859,1.1368 4.2932,-2.8773 9.8258,-6.151 11.0183,-11.5163 0.1126,-6.9202 -1.5578,-13.848 -0.1776,-20.758 1.0114,-6.0669 0.3941,-12.2756 2.2978,-18.1941 2.2544,-6.4426 -3.5735,-10.3285 -8.8704,-11.9303 -1.5261,-0.9006 -3.5939,-1.4028 -4.6177,-2.9385 z"
       id="path652" />
    <path
       style="display:inline;fill:none;stroke:#000000;stroke-width:0.264583px;stroke-linecap:butt;stroke-linejoin:miter;stroke-opacity:1"
       d="m 1982.483,1095.8962 c -2.9212,-5.522 -7.7735,-10.3351 -8.3713,-16.9887 -2.1132,-9.6135 -9.1933,-17.7729 -9.1504,-27.9552 -0.5749,-7.7876 -8.2532,-10.9975 -14.3644,-13.741 -6.8223,-3.0894 -15.6112,-3.7566 -21.7921,1.0701 -4.5981,1.0556 -9.5438,0.2426 -13.8426,3.3298 -5.2011,0.2987 -8.3868,7.0626 -13.7907,5.5429 -8.5792,-2.1316 -17.5802,0.5161 -25.6412,3.5214 -6.8295,2.6762 -12.9575,6.7875 -19.3581,10.2667 -7.959,2.3072 -15.9051,-1.8085 -23.7427,-2.8878 -10.0393,-1.7231 -22.4262,-0.8504 -29.4076,7.5615 -3.8403,5.8367 -8.0666,11.6312 -13.1831,16.4344 -6.1671,4.3951 -13.2995,-0.1585 -19.8271,-0.3395 -6.21,0.4342 -10.4271,4.9893 -14.5856,8.9183 -4.7626,2.3583 -9.1965,5.3979 -11.3207,10.4913 -3.16,4.5089 -7.9433,7.593 -11.2475,12.0382 -4.9557,5.2961 -11.9395,8.0487 -17.6151,12.4744 -4.8098,3.449 -11.6259,4.3281 -14.6212,9.9444 -4.0898,5.2535 -8.7118,10.1164 -13.1564,15.0857 -5.3494,3.6865 -12.2297,5.0456 -16.2488,10.7166 -4.4114,6.4433 -12.2808,9.569 -16.2568,16.3413 -3.1988,6.4578 -7.5972,12.5913 -9.3275,19.6235 -0.3736,7.2552 3.274,13.8353 5.8817,20.3553 1.1182,7.3248 -2.3085,14.5183 -5.0265,21.1637 -3.0605,6.4481 1.8088,14.0675 7.3039,17.58 5.1393,1.9345 10.4688,3.2011 15.4892,5.5012 6.848,2.7439 13.5857,-0.7936 18.7606,-5.1504 3.524,-3.5349 7.3521,-6.5296 11.5031,-9.3224 5.283,-5.8896 14.4811,-3.3035 20.3704,-8.2982 5.9719,-4.3444 6.3764,-12.1724 9.6789,-18.2356 1.7707,-4.8668 3.4559,-10.0149 7.6789,-13.3836 6.9101,-6.0513 15.4596,-11.7069 17.4278,-21.3588 2.5173,-8.9186 5.9975,-18.3465 13.8649,-23.9219 3.7282,-4.6067 5.8882,-10.4997 11.1784,-13.7625 5.4794,-3.6395 9.8671,-9.4608 16.4272,-11.135 7.5044,-1.5606 14.9646,2.825 18.9147,9.0598 4.243,5.6194 11.1529,7.6061 17.8934,7.7129 11.5117,1.2188 23.0732,0.086 34.5899,-0.191 7.731,-1.1031 14.9764,-4.6429 22.9344,-4.6419 13.8022,-0.97 27.607,2.204 40.4363,7.0835 6.8543,2.2001 9.185,10.408 8.5739,16.8719 -0.4237,8.7745 -7.2484,14.4001 -11.4421,21.1994 -4.179,5.4813 -5.3759,12.8579 -1.5861,18.8419 3.0867,7.4362 8.6904,15.3541 17.4586,15.9367 8.7998,1.1363 17.7412,0.2504 26.5273,-0.5442 6.9108,-1.5861 13.905,-4.8975 18.417,-10.4991 1.6666,-2.279 3.0038,-4.8059 4.9401,-6.8814"
       id="path654" />
    <path
       style="display:inline;fill:none;stroke:#000000;stroke-width:0.264583px;stroke-linecap:butt;stroke-linejoin:miter;stroke-opacity:1"
       d="m 1518.0629,858.33755 c 10.1942,-3.1355 16.6109,-13.6288 27.5858,-14.9944 8.6729,-1.7028 17.7618,-2.927 25.2393,-8.0354 7.0673,-4.1456 15.3774,-7.9322 23.6967,-5.3902 7.2031,1.9049 14.3461,-0.4159 20.7103,-3.7529 3.6884,-1.7024 10.9313,-4.9635 12.4257,-5.729 -3.9889,2.7728 4.9082,-1.1216 6.0672,-1.6628 6.8131,-3.9528 14.5781,-5.1523 22.2405,-6.2666 5.0398,-0.687 9.8595,-2.379 14.5736,-4.1471 7.1327,-1.1636 14.401,-1.7508 21.2038,-4.3242 4.9914,0.046 9.2929,-2.5425 14.2085,-2.6667 6.3877,-0.9231 12.7938,-1.481 19.253,-1.4669 4.7553,-2.8366 10.3502,-3.1053 15.5851,-1.7142 6.1562,-0.2382 11.8917,4.6547 10.5938,11.1536 -0.5786,6.5343 -1.5801,13.1303 -4.8899,18.9101 -8.1285,14.9463 -3.9863,33.4711 -12.6358,48.2578 -3.438,6.3722 -8.3733,11.8402 -14.6733,15.4689 -5.0936,3.599 -12.2161,2.1653 -16.7612,6.8053 -6.5387,6.1554 -12.4952,14.1124 -12.8615,23.3834 -2.5358,4.334 -1.0763,9.4646 -3.3961,13.7357 -2.2784,4.4997 -3.3649,9.3807 -7.7441,12.527 -4.3331,4.6988 2.4746,9.5017 1.677,14.6968 -1.8807,4.7669 0.535,10.038 -1.5243,14.7046 -1.9774,5.9995 -9.7762,10.8345 -15.7929,8.2026 -5.3798,-2.75 -9.557,-7.3499 -10.3301,-13.4683 -2.1309,-7.1067 -9.8703,-9.5944 -16.2796,-11.3667 -6.2935,-1.594 -12.8589,-0.9567 -19.1695,-0.1385 -5.7413,-0.1889 -11.6398,-0.8333 -16.4827,-4.2127 -4.9498,-2.8215 -5.8941,-9.3924 -11.0577,-12.1704 -7.5096,-6.3981 -17.7717,-3.4908 -26.6816,-3.5969 -11.6122,-0.5534 -24.1371,-3.8254 -34.9886,2.0574 -5.1949,2.8409 -11.2422,5.4232 -16.8977,2.6117 -6.5529,0.3853 -13.0568,-0.2873 -19.5922,-0.8013 -3.8627,-0.01 -8.1973,0 -11.4961,2.2797"
       id="path656" />
    <path
       style="display:inline;fill:none;stroke:#000000;stroke-width:0.264583px;stroke-linecap:butt;stroke-linejoin:miter;stroke-opacity:1"
       d="m 2060.9449,1154.6095 c -6.0804,-0.7771 -9.9808,5.0502 -14.3463,8.2649 -4.2458,3.9407 -9.5749,7.6157 -15.6855,6.5826 -5.4511,-0.7543 -10.4648,-3.105 -16.0096,-1.006 -7.1206,0.022 -9.8251,-7.7974 -14.5696,-11.7382 -2.7395,-4.2382 -4.6199,-10.0134 -2.8683,-14.9462 1.969,-6.0666 9.2751,-6.7039 13.7892,-3.0907 7.1405,3.9251 15.9955,-1.2694 19.4309,-7.8664 4.2313,-4.7679 3.271,-11.6096 5.3105,-17.284 1.0502,-5.3556 2.3692,-11.548 7.7674,-14.1829 5.1966,-3.1928 11.6358,-3.4285 16.9442,-6.1787 2.9124,-5.4151 -4.3185,-8.5504 -8.3359,-10.2002 -6.9555,-2.7907 -14.3907,-5.1052 -21.9336,-5.0684 -7.5529,1.4399 -14.6234,4.8659 -21.4917,8.2364 -4.2354,4.1941 -11.5346,3.3733 -11.8433,-3.3818 -2.6736,-7.6632 2.7059,-15.5662 0.5174,-23.1052 -2.7091,-5.434 -4.4028,-11.4844 -3.2222,-17.5802 1.0735,-7.741 3.7566,-15.598 1.6597,-23.4157 -0.2211,-6.2239 -3.014,-12.9029 0.8213,-18.584 2.7285,-6.12015 9.7638,-7.30025 15.7267,-6.58175 7.1994,1.6464 14.5423,1.0934 21.8585,0.7805 6.9448,2.0347 11.5869,-4.6481 17.8612,-5.7749 6.0686,-2.4389 12.5694,-3.5981 19.1,-2.8484 5.8463,0.059 12.0236,1.0395 15.9563,5.8402 4.7789,3.8209 10.0187,7.9788 10.2767,14.69815 2.4131,8.1802 -4.4077,15.4294 -11.2902,18.6791 -4.9946,1.0844 -11.3199,7.7437 -12.1625,13.8746 -0.6418,7.5644 6.3885,13.6391 13.0262,15.7304 7.4398,1.338 14.9644,2.2956 22.3108,4.0316 6.9696,1.9732 8.2977,10.5759 6.1316,16.5487 -1.1355,2.5093 -1.265,5.1263 -0.6923,7.8162"
       id="path1163" />
    <path
       style="display:inline;fill:none;stroke:#000000;stroke-width:0.264583px;stroke-linecap:butt;stroke-linejoin:miter;stroke-opacity:1"
       d="m 2170.3464,1074.8015 c 3.2941,-5.6123 4.5502,-12.3867 10.0889,-16.4337 4.4639,-3.9494 9.9016,-6.7311 15.1121,-9.5054 5.8183,-1.2576 9.1654,-6.4052 13.971,-9.4308 6.4566,-5.3544 12.2851,-11.5385 19.5912,-15.8186 3.765,-4.288 8.3369,-7.7898 13.7134,-9.7695 12.4249,-6.0074 26.2152,-8.3206 38.6951,-14.20955 10.6411,-4.3081 22.1056,-7.9191 33.7136,-6.8889 4.8147,2.4611 8.3812,6.8765 13.5995,8.69625 5.6373,3.2686 13.5911,3.1307 17.4701,8.9228 2.0926,5.3048 5.7313,9.7078 8.045,14.8639 2.7557,7.1403 1.1474,15.0228 -2.1278,21.6819 -2.6726,7.3235 -2.9789,15.5212 -6.7625,22.389 -4.1875,5.0932 -9.8617,8.3007 -15.6988,11.1726 -7.1748,2.4863 -10.542,9.5239 -16.8258,12.9229 -8.6834,5.8176 -18.5759,9.5952 -28.6525,12.0801 -9.7123,4.2758 -20.6039,0.2823 -30.5835,3.3122 -4.1209,1.5908 -13.0387,-2.4525 -13.5624,-1.3516 -5.9099,-0.7419 -11.5314,-3.1059 -17.0341,-5.2209 -4.3098,-1.6073 -8.537,-3.3847 -12.2304,-6.1871"
       id="path1165" />
    <path
       style="display:inline;fill:none;stroke:#000000;stroke-width:0.264583px;stroke-linecap:butt;stroke-linejoin:miter;stroke-opacity:1"
       d="m 2504.4561,672.84495 c -6.8495,3.1412 -12.9917,8.0643 -16.7375,14.6607 -3.7522,3.9258 -3.7854,9.5531 -2.5681,14.4928 0.5164,7.5094 -1.6026,16.6358 4.732,22.3315 6.2395,5.3374 14.9858,4.9306 22.5561,6.7409 9.8982,1.2465 19.918,0.5536 29.8515,0.4152 6.6779,-0.2095 10.4641,-5.9375 15.3818,-9.4164 4.8221,-3.0735 9.2223,-7.6594 10.5535,-13.3079 -0.4255,-4.761 -2.3084,-9.6872 -4.9865,-13.68 -5.1706,-3.4674 -12.3539,-1.5509 -17.6398,-5.0813 -5.3875,-5.1444 -13.1647,-4.8072 -19.7833,-7.0387 -7.3544,-1.8082 -11.3827,-10.1889 -18.1287,-11.4984 -1.1669,0.1822 -2.3142,0.6228 -3.231,1.3816 z"
       id="path1167" />
    <path
       style="display:inline;fill:none;stroke:#000000;stroke-width:0.264583px;stroke-linecap:butt;stroke-linejoin:miter;stroke-opacity:1"
       d="m 2529.2725,554.36665 c -3.094,-5.6197 -11.7649,-4.0712 -14.2451,1.3217 -3.1574,6.7923 -2.084,14.9257 -6.316,21.3662 -4.914,4.3781 2.6293,11.7046 6.5861,6.2815 5.6562,-5.1766 10.3922,-11.5202 12.2154,-19.0718 1.1177,-3.1957 1.6317,-6.5268 1.7596,-9.8976 z"
       id="path1169" />
    <path
       style="display:inline;fill:none;stroke:#000000;stroke-width:0.264583px;stroke-linecap:butt;stroke-linejoin:miter;stroke-opacity:1"
       d="m 2529.7715,487.32845 c 1.67,-5.8623 10.2616,-2.5895 10.9244,2.3439 1.2291,5.4452 -3.4497,10.5105 -7.9826,12.6653 -7.4727,1.5762 -15.1307,2.5034 -22.7783,2.6218 -7.1319,1.3762 -10.1927,-10.2581 -2.8331,-11.9494 5.6258,-1.563 11.5837,-0.9954 17.2501,-2.2523 2.0796,-0.6115 3.9815,-1.805 5.4195,-3.4293 z"
       id="path1171" />
    <path
       style="display:inline;fill:none;stroke:#000000;stroke-width:0.264583px;stroke-linecap:butt;stroke-linejoin:miter;stroke-opacity:1"
       d="m 2606.8867,267.06975 c -5.6156,1.4612 -6.0975,8.7722 -5.1691,13.4816 1.9762,7.2248 -0.3703,14.202 -2.2047,21.1209 -0.729,6.6 -3.2388,13.0317 -2.9102,19.7107 0.3246,6.9263 9.4155,6.2573 13.5231,3.1035 4.8573,-3.1864 9.0712,-10.037 6.7552,-15.75 -3.0361,-4.0382 -2.2075,-8.9478 -1.4409,-13.5095 -0.6697,-5.5253 0.7812,-11.5625 -2.6906,-16.4021 -3.7293,-3.1611 0.1987,-11.4625 -5.8628,-11.7551 z"
       id="path1173" />
    <path
       style="display:inline;fill:none;stroke:#000000;stroke-width:0.264583px;stroke-linecap:butt;stroke-linejoin:miter;stroke-opacity:1"
       d="m 2498.1858,82.079546 c -3.58,4.2188 -5.7123,9.6738 -4.6989,15.2418 1.1609,8.452204 -2.4498,16.926904 -8.795,22.497904 -5.7825,6.2078 -11.1657,13.477 -19.4675,16.4823 -8.1328,3.5955 -17.0872,4.1451 -25.5904,6.3297 -5.7956,2.5272 -11.7452,4.6163 -18.0883,3.0733 -6.968,0.1131 -13.9399,-0.844 -20.5716,-2.9992 -5.8109,-3.0877 -12.4481,-3.9802 -18.5646,-6.2153 -5.9851,0.4014 -12.0611,-2.1061 -13.3662,-8.5595 -2.4188,-5.8077 -3.19,-12.1287 -1.2089,-18.1752 0.6464,-5.6687 4.8479,-9.4494 9.2423,-12.489104 3.149,-5.1401 8.3219,-8.2297 13.9041,-10.2734 6.2705,-3.3561 10.4066,-9.5533 14.7157,-15.0005 1.8352,-5.6231 7.5684,-6.0872 12.5122,-5.1039 6.4896,-0.857 6.8183,-9.0965 9.6643,-13.6667 4.0748,-5.8292 7.6303,-12.0582 10.0874,-18.7407 2.5436,-4.3046 6.8015,-7.2184 9.5811,-11.3416"
       id="path1175" />
    <path
       style="display:inline;fill:none;stroke:#000000;stroke-width:0.264583px;stroke-linecap:butt;stroke-linejoin:miter;stroke-opacity:1"
       d="m 1854.2609,80.129346 c -10.6563,5.5049 -16.8637,16.1486 -23.8719,25.351504 -3.8927,4.8699 -9.7476,8.5155 -10.9914,15.0629 -2.8544,11.1815 -6.6828,22.6028 -14.0274,31.7039 -4.0832,3.7186 -4.7662,9.4106 -5.5059,14.5192 -2.4349,4.9344 -3.6381,10.2296 -3.5225,15.7048 -0.7475,6.9344 -2.0478,13.8625 -1.7019,20.8654 4.7008,3.2857 0.2478,9.9256 4.3948,13.2125 6.3834,6.1138 15.8303,3.5322 23.2235,1.0692 6.0522,-1.7798 9.9928,-7.2603 12.8801,-12.5444 2.6284,-4.5643 0.6528,-11.2491 5.3047,-14.5954 7.5843,-3.6442 16.1696,-5.8948 24.5915,-5.3382 5.5405,0.8696 7.0904,6.8411 5.8891,11.5678 -1.9535,5.0789 -0.7466,10.3076 0.6618,15.3341 1.4849,6.0826 8.8324,4.7207 13.5265,5.8761 5.5146,1.1759 9.7045,-3.9187 12.6983,-7.8512 2.1246,-6.3053 3.2056,-13.3733 2.9126,-20.0243 -2.503,-6.6885 -0.092,-15.3264 7.5142,-17.185 7.4566,-1.6483 15.3314,-1.1421 22.4741,-4.3168 6.3394,-1.8695 9.6793,-3.9509 15.7298,-6.0224 4.6414,-1.542 9.2048,-3.2252 13.3873,-5.795 6.9011,-2.9361 14.2649,-5.025 20.2311,-9.7854 9.1706,-5.8295 19.8056,-9.217 30.6577,-9.7407 9.5067,-1.8987 17.9571,-7.091 27.4105,-9.2702 9.3009,-2.2238 17.5978,-7.056 26.4866,-10.3748 1.624,-0.3215 3.627,-1.4682 5.2064,-0.9327"
       id="path1177" />
    <path
       style="display:inline;fill:none;stroke:#000000;stroke-width:0.264583px;stroke-linecap:butt;stroke-linejoin:miter;stroke-opacity:1"
       d="m 1611.1401,49.166246 c -9.8766,-0.2696 -21.3954,1.0948 -27.9411,9.362 -5.4502,4.314 -11.3761,8.3862 -14.5501,14.8367 -3.5222,5.6548 -4.7199,12.3752 -2.6568,18.7341 0.073,4.9645 3.814,8.290104 5.7898,12.523604 3.9282,7.4828 0.8328,15.9703 1.4778,23.8676 1.7352,5.8033 4.7143,11.3315 4.4211,17.5977 -0.04,5.4482 0.3777,13.0422 7.4986,13.1957 8.864,2.195 18.9071,4.0142 27.1249,-1.185 8.7344,-4.1861 16.9389,-12.2859 16.6159,-22.6324 -0.7048,-5.1718 0.2589,-10.2792 -0.2921,-15.4566 -0.5992,-7.3436 2.5142,-14.6087 0.9209,-21.946504 0.4095,-10.2009 7.6245,-19.7204 4.4228,-30.1123 -1.6631,-7.1155 -5.6202,-14.7036 -12.5267,-17.7697 -3.4114,-0.518 -6.8411,-1.1131 -10.305,-1.0149 z"
       id="path1179" />
    <path
       style="display:inline;fill:none;stroke:#000000;stroke-width:0.264583px;stroke-linecap:butt;stroke-linejoin:miter;stroke-opacity:1"
       d="m 1445.62,991.04945 c 6.3071,-6.034 15.2684,-7.633 22.6926,-11.7767 6.5539,-1.8241 13.5089,-3.8896 18.0836,-9.2688 4.7013,-4.0552 11.6025,-4.9634 17.2436,-2.446 6.2806,2.0621 8.7254,10.1521 15.7206,10.7974 7.946,1.35 16.0097,-0.9277 23.9733,0.4695 6.4009,0.9016 12.8635,1.0512 19.2936,0.4079 7.4046,-0.4013 15.0451,0.5127 21.6278,4.1281 6.8142,2.749 13.4616,5.9848 19.4561,10.2533 6.141,3.2765 12.7269,5.9469 17.8899,10.76025 6.3358,4.012 14.2347,5.7201 19.1598,11.7984 3.6188,5.2283 8.3323,9.3129 12.6369,13.9259 3.5927,5.9223 5.2605,12.8376 8.6619,18.8978 3.1538,9.5291 -0.3645,19.7527 2.3296,29.3547 0.1479,1.3057 0.1378,2.6501 -0.2222,3.9233"
       id="path13029" />
    <path
       style="display:inline;fill:none;stroke:#000000;stroke-width:0.264583px;stroke-linecap:butt;stroke-linejoin:miter;stroke-opacity:1"
       d="m 1324.9426,950.20055 c -4.8687,-1.5615 -9.6539,-4.5481 -13.8794,-7.4734 -0.9368,-0.6486 -1.6731,-1.582 -2.6691,-2.1353 -0.6413,-0.3563 -1.4443,-0.2871 -2.1353,-0.5338 -6.9798,-2.4928 -13.5372,-4.3391 -20.819,-5.8721 -0.7179,-0.1511 -1.4016,-0.5338 -2.1352,-0.5338 -6.3952,0 -2.1125,2.2049 -11.2103,1.0677 -2.7626,-0.3454 -9.0604,-4.2634 -11.2102,-5.3383 -4.354,-2.177 -8.9758,-4.2159 -13.8793,-4.8043 -1.7756,-0.2131 -3.55,0.5338 -5.3383,0.5338 -1.4345,0 -2.8661,-0.8264 -4.2705,-0.5338 -3.035,0.6323 -16.8365,5.7703 -18.6837,8.5411 -2.0325,3.0486 -3.6625,6.3504 -5.3382,9.6088 -1.529,2.973 -4.0482,5.7391 -4.2706,9.0749 -0.1695,2.5421 2.1216,4.6328 3.2029,6.9397 4.0204,8.5768 6.371,14.9353 16.0146,18.1499 7.0895,2.3631 15.8929,0.8876 22.4205,5.3382 6.7388,4.5946 6.8626,15.2661 11.2102,21.35275 2.4866,3.4811 5.6284,6.5407 9.075,9.0749 8.0211,5.898 20.0552,7.2073 28.8263,11.7441 2.499,1.2926 4.6236,3.2071 6.9397,4.8044 6.5754,4.5348 11.4905,8.4628 19.2175,11.2102 4.3105,1.5326 8.8445,2.3846 13.3455,3.2029 3.117,0.5668 15.2422,1.1264 18.6837,2.6691 8.0697,3.6175 11.1303,12.6021 18.1499,17.6161 12.0375,8.5982 22.9912,6.3765 35.766,11.2102 3.3492,1.2673 6.5721,2.9065 9.6088,4.8044 2.4708,1.5443 9.4787,7.9423 12.8117,9.6088 11.2648,5.6324 23.9813,1.6562 35.7659,0.5338 7.2713,-0.6925 14.5878,-0.7869 21.8867,-1.0676 1.2446,-0.048 2.5437,0.3579 3.7367,0 2.4403,-0.7321 4.5227,-2.3973 6.9397,-3.2029 2.417,-0.8057 5.099,-0.6781 7.4735,-1.6015 3.5664,-1.3869 4.2705,-10.2498 4.2705,-11.2102 0,-12.4193 -22.7691,-24.3331 -33.0968,-27.2249 -6.8084,-1.9063 -13.4387,-1.4243 -20.2852,-2.6691 -6.3064,-1.1466 -11.4917,-4.0228 -17.0823,-6.9396 -3.373,-1.7599 -9.0049,-4.3387 -12.2779,-6.4059 -11.0104,-6.954 -17.4213,-19.0428 -26.1571,-28.2925 -4.4021,-4.66095 -6.1673,-5.17805 -11.2103,-9.07495 -6.6995,-5.1769 -4.3956,-4.2215 -10.6764,-9.0749 -17.5771,-12.1688 1.2838,1.2756 -11.2102,-8.5411 -4.3343,-3.4055 -10.2396,-5.0956 -15.4808,-6.4059 -2.4717,-0.6179 -5.1947,-0.4621 -7.4735,-1.6014 -4.4299,-2.215 -9.0612,-4.4405 -13.3455,-6.9397 -2.7955,-1.6307 -4.3723,-4.572 -6.9397,-6.4058 -0.4579,-0.3271 -1.0676,-0.3559 -1.6014,-0.5339 -0.8897,-0.8896 -1.7794,-1.7794 -2.6691,-2.6691 z"
       id="path13035" />
    <rect
       style="display:inline;fill:#000000;stroke-width:0.120855"
       id="rect9687"
       width="10"
       height="10"
       x="0"
       y="0"
       rx="2.4621284e-17" />
    <rect
       style="display:inline;fill:#000000;stroke-width:0.120855"
       id="rect9687-7"
       width="10"
       height="10"
       x="2830"
       y="1460"
       rx="2.4621284e-17" />
  </g>
</svg>
