<?xml version="1.0" encoding="UTF-8" standalone="no"?>
<!-- Created with Inkscape (http://www.inkscape.org/) -->

<svg
   width="284cm"
   height="147cm"
   viewBox="0 0 2840 1470"
   version="1.1"
   id="svg8914"
   inkscape:version="1.1.1 (c3084ef, 2021-09-22)"
   sodipodi:docname="4-borders.svg"
   xmlns:inkscape="http://www.inkscape.org/namespaces/inkscape"
   xmlns:sodipodi="http://sodipodi.sourceforge.net/DTD/sodipodi-0.dtd"
   xmlns="http://www.w3.org/2000/svg"
   xmlns:svg="http://www.w3.org/2000/svg">
  <sodipodi:namedview
     id="namedview8916"
     pagecolor="#ffffff"
     bordercolor="#666666"
     borderopacity="1.0"
     inkscape:pageshadow="2"
     inkscape:pageopacity="0.0"
     inkscape:pagecheckerboard="0"
     inkscape:document-units="mm"
     showgrid="false"
     units="cm"
     inkscape:zoom="0.070121956"
     inkscape:cx="4912.8692"
     inkscape:cy="2809.3911"
     inkscape:window-width="1440"
     inkscape:window-height="900"
     inkscape:window-x="0"
     inkscape:window-y="0"
     inkscape:window-maximized="0"
     inkscape:current-layer="layer1" />
  <defs
     id="defs8911" />
  <g
     inkscape:label="Layer 1"
     inkscape:groupmode="layer"
     id="layer1">
    <rect
       style="display:inline;fill:#000000;stroke-width:0.120855"
       id="rect9687-7"
       width="10"
       height="10"
       x="2830"
       y="1460"
       rx="2.4621284e-17" />
    <path
       style="display:inline;fill:none;stroke:#000000;stroke-width:0.264583px;stroke-linecap:butt;stroke-linejoin:miter;stroke-opacity:1"
       d="M 426.63617,324.46117 C 439.94973,334.03277 455.88736,340.99872 472.58874,339.28998 491.50053,339.27098 510.78149,335.72714 527.09774,325.76453 538.05644,319.14262 553.59625,321.30376 562.17188,311.05245 569.37995,297.89114 556.9475,284.04643 557.26892,270.25059 556.4887,265.09792 555.97863,259.90316 555.77742,254.69519"
       id="path2148" />
    <path
       style="display:inline;fill:none;stroke:#000000;stroke-width:0.264583px;stroke-linecap:butt;stroke-linejoin:miter;stroke-opacity:1"
       d="M 518.39123,330.35456 C 515.802,346.44983 512.41867,362.41363 506.03178,377.4797 501.81029,390.24934 500.69558,403.74764 495.83453,416.3543 491.61216,428.72058 491.27253,442.44469 496.9689,454.43304 502.76592,468.90621 502.29838,484.49115 503.82488,499.68592 505.44167,509.23102 509.99979,525.0267 494.60183,521.62186 482.86651,521.82013 470.60518,519.56465 459.25661,523.2582 451.23746,529.10864 440.58394,530.37948 433.00871,537.42323 431.7463,538.96866 429.60157,538.92803 427.86201,539.44536"
       id="path2150" />
    <path
       style="display:inline;fill:none;stroke:#000000;stroke-width:0.264583px;stroke-linecap:butt;stroke-linejoin:miter;stroke-opacity:1"
       d="M 563.93536,233.05721 C 577.71516,225.29382 593.65898,233.01891 608.36093,230.0344 633.19014,231.50336 657.98396,237.84815 682.96693,235.01281 699.24241,234.37095 715.91423,235.60405 731.50107,240.52178 745.633,243.68312 759.96288,246.46377 774.34682,247.93649 779.22559,247.88639 784.09018,246.83981 788.56329,244.89312"
       id="path2152"
       sodipodi:nodetypes="csssssssssssssssssscscsscsssssssssscsssssssssc" />
    <path
       style="display:inline;fill:none;stroke:#000000;stroke-width:0.264583px;stroke-linecap:butt;stroke-linejoin:miter;stroke-opacity:1"
       d="M 788.65302,244.66499 C 791.17128,258.26866 775.59334,267.7553 778.9214,281.934 775.41318,296.29437 781.99284,310.43702 780.14073,324.39942 771.27919,338.12311 771.74528,353.56931 772.08758,369.26343 769.21911,385.2501 765.08432,401.28342 770.03525,417.47958 772.92944,431.03384 773.24434,445.13264 768.92681,458.4443 764.08764,472.42258 763.72597,487.75114 757.38039,501.1606 746.2302,513.98187 737.87979,529.16812 725.70914,541.13509 717.71211,549.62205 706.41384,554.0247 698.64929,562.67626 687.27975,560.13896 676.61624,554.50237 666.58258,548.83776 658.08607,541.86084 647.50125,535.85319 644.65485,524.51313 637.15874,507.12619 614.18912,504.99138 605.56796,488.4739 597.53756,473.44082 605.35395,455.79418 600.35268,439.92545 598.05882,428.0419 586.10842,420.99057 586.50078,408.13555 582.79509,394.08747 573.4302,382.40863 565.7935,370.22638 561.44481,357.22262 563.32838,343.17261 562.54763,329.68777 562.69172,322.98251 563.2583,316.26765 564.61154,309.69114"
       id="path2154" />
    <path
       style="display:inline;fill:none;stroke:#000000;stroke-width:0.264583px;stroke-linecap:butt;stroke-linejoin:miter;stroke-opacity:1"
       d="M 603.80019,485.66534 C 594.86338,494.82093 589.48131,511.32039 574.64396,511.71839 561.06021,511.26746 548.58494,516.94032 535.29628,518.25371 525.91203,519.18384 516.14606,518.08654 507.05603,520.83027"
       id="path2156" />
    <path
       style="display:inline;fill:none;stroke:#000000;stroke-width:0.264583px;stroke-linecap:butt;stroke-linejoin:miter;stroke-opacity:1"
       d="M 700.27507,563.32666 C 709.66051,574.38949 712.00744,589.61922 707.2815,603.19338 704.84418,617.65462 702.89584,632.16443 699.85888,646.46818 699.68276,663.10596 690.95542,677.64528 686.55936,693.31164 682.32752,702.87135 681.32798,716.40921 669.94061,720.3021 657.02699,723.89575 643.39993,720.69652 630.22816,722.86467 612.30874,725.83976 594.73707,719.58956 576.80647,720.61934 562.1903,720.286 550.73764,710.7022 540.0274,702.09994 528.69051,696.57914 517.06048,704.96631 505.30791,700.35499 494.27001,700.95942 483.68661,699.79798 472.64332,701.15265 463.26409,701.5168 454.11713,702.65387 445.18917,698.56491"
       id="path2158" />
    <path
       style="display:inline;fill:none;stroke:#000000;stroke-width:0.264583px;stroke-linecap:butt;stroke-linejoin:miter;stroke-opacity:1"
       d="M 570.26044,719.6726 C 562.7673,732.75764 558.88393,747.61035 564.68996,762.04277 565.03865,777.64794 573.44576,791.91417 572.8903,807.38301 569.83488,822.70616 563.83731,837.29549 559.79684,852.39439 552.91216,863.99367 551.36166,879.05632 540.95475,888.22917 525.74487,894.26254 508.12484,891.99293 492.98069,898.91062 476.68476,900.28111 460.64967,908.18324 444.19971,905.07172"
       id="path2160" />
    <path
       style="display:inline;fill:none;stroke:#000000;stroke-width:0.264583px;stroke-linecap:butt;stroke-linejoin:miter;stroke-opacity:1"
       d="M 788.68252,244.85214 C 789.9553,217.5728 796.67659,190.95485 799.40272,163.82662 801.58582,148.04433 797.89124,131.98955 800.74373,116.24004 800.56778,106.1355 800.5386,96.027351 800.16614,85.927111"
       id="path2214" />
    <path
       style="display:inline;fill:none;stroke:#000000;stroke-width:0.264583px;stroke-linecap:butt;stroke-linejoin:miter;stroke-opacity:1"
       d="M 700.83345,563.14513 C 715.50238,569.00085 732.03783,567.31952 746.55344,573.69342 754.47062,582.79467 767.27694,575.75958 777.35226,578.81368 793.08594,581.10618 809.04194,582.82528 824.92543,581.19457 837.75129,583.78181 848.4809,594.3274 862.43759,590.45295 875.54489,594.05069 888.00276,601.1374 902.15681,598.20227 913.99872,597.52767 925.33173,601.27831 937.10454,601.75578 940.05902,602.33991 942.94638,603.42913 945.39489,605.20923"
       id="path2216" />
    <path
       style="display:inline;fill:none;stroke:#000000;stroke-width:0.264583px;stroke-linecap:butt;stroke-linejoin:miter;stroke-opacity:1"
       d="M 540.75487,144.39185 C 544.03407,129.34508 563.79399,125.83606 566.53378,110.22038 567.37859,107.73136 568.11677,105.20753 568.99229,102.72871"
       id="path2218" />
    <path
       style="display:inline;fill:none;stroke:#000000;stroke-width:0.264583px;stroke-linecap:butt;stroke-linejoin:miter;stroke-opacity:1"
       d="M 1676.6664,46.547121 C 1674.5495,64.683111 1656.4834,78.801151 1661.214,98.142181 1663.9323,114.37038 1659.7181,130.49044 1660.2734,146.66323 1663.0116,163.59599 1658.1998,180.73322 1662.3132,197.43704 1665.5883,210.09924 1670.3977,222.26448 1671.9681,235.33196 1676.7576,250.49699 1681.8902,266.12733 1691.3673,279.09766 1702.8246,288.15125 1719.3921,288.06663 1733.1413,288.38589 1745.3413,285.49667 1757.7281,284.17406 1769.9712,283.39009 1782.8744,285.74935 1779.6948,301.16072 1782.0282,310.71956 1783.8226,329.21963 1785.934,348.06081 1781.4795,366.36747 1775.4027,393.19701 1776.486,420.83662 1776.0268,448.14954 1774.8352,460.57257 1781.7142,475.0601 1772.6489,485.68886 1764.3211,492.26443 1754.5635,497.57798 1745.2302,502.09873 1732.6105,507.66214 1735.1761,524.36113 1726.7451,532.96645 1718.0965,537.26911 1707.9693,536.31476 1698.924,539.76982 1682.5025,542.75444 1665.7134,541.03954 1649.175,540.9316 1632.3751,536.87257 1615.6551,541.81423 1598.812,540.69023 1584.7349,537.57743 1569.7203,540.78743 1556.4652,534.22573 1545.554,526.77403 1532.2764,526.69304 1519.5916,527.3757 1496.7432,525.4202 1475.2339,536.76797 1452.4317,535.24997 1441.8519,530.56462 1430.1104,538.03612 1419.1524,533.38635 1399.0172,531.48533 1378.2946,533.7995 1358.5943,528.50384"
       id="path2468" />
    <path
       style="display:inline;fill:none;stroke:#000000;stroke-width:0.264583px;stroke-linecap:butt;stroke-linejoin:miter;stroke-opacity:1"
       d="M 1727.6288,534.22308 C 1743.0185,537.06644 1758.6568,534.83937 1774.0687,535.6124 1788.8887,536.21821 1803.5328,537.71446 1818.072,540.5113 1836.6445,542.03442 1855.3417,537.69375 1873.8162,541.58153 1890.2094,544.37994 1905.9531,550.18062 1922.642,551.45893 1938.4237,553.76909 1954.441,551.28143 1970.0937,554.83875 1990.05,557.2066 2010.2184,553.61288 2030.236,555.94492 2045.4776,557.03083 2060.787,557.58875 2076.067,558.35014 2087.9503,553.96049 2102.2361,560.5208 2112.7675,553.18043 2122.709,540.47478 2117.4808,522.85395 2120.7147,508.02073 2123.4906,493.53484 2113.9607,473.47699 2130.6816,464.88926 2143.7186,460.09427 2155.004,451.63394 2168.4388,447.75581 2180.8306,448.2133 2191.8541,441.20956 2194.5025,428.60771 2200.649,416.29117 2201.1855,401.08631 2211.6107,391.15694 2218.5238,381.15229 2227.3251,369.49337 2241.0731,371.22747 2254.9274,370.65037 2267.207,378.63124 2281.0857,378.18089 2296.632,378.66966 2311.3498,384.56626 2326.344,388.24518 2340.2737,393.45654 2349.1503,407.03119 2363.2864,412.08935 2378.2094,419.63767 2394.8439,423.84506 2411.359,425.7481 2420.2827,424.04378 2429.8576,420.65936 2437.9694,417.65011"
       id="path2470" />
    <path
       style="display:inline;fill:none;stroke:#000000;stroke-width:0.264583px;stroke-linecap:butt;stroke-linejoin:miter;stroke-opacity:1"
       d="M 2114.2487,550.15753 C 2116.4428,576.13027 2114.7926,602.25068 2114.9243,628.2498 2111.6925,653.53148 2106.2365,678.90979 2109.3914,704.51164 2110.8649,730.07982 2107.3083,755.61299 2102.5557,780.61443 2101.1506,796.84205 2099.7204,813.08484 2101.1135,829.36204 2100.6807,853.29279 2094.7099,877.15004 2098.9854,901.08495 2101.6607,919.32549 2104.2005,937.59676 2105.4412,955.98215 2108.502,972.32376 2116.9149,987.37076 2117.9872,1004.1258 2123.2226,1020.7467 2130.7903,1036.5491 2137.4439,1052.6107 2146.3364,1068.9463 2158.3913,1083.4014 2166.0256,1100.4621 2171.3492,1115.5525 2189.145,1119.8793 2194.2725,1134.5787 2203.0776,1157.8642 2191.7219,1183.5713 2174.709,1199.9644 2161.0186,1215.2682 2153.1976,1234.8572 2146.8207,1254.1261 2139.46,1280.2083 2137.3761,1308.9505 2145.2789,1335.1384"
       id="path2472" />
    <path
       style="display:inline;fill:none;stroke:#000000;stroke-width:0.264583px;stroke-linecap:butt;stroke-linejoin:miter;stroke-opacity:1"
       d="M 780.69266,324.29859 C 786.37261,324.40641 792.49788,321.556 797.82083,324.6904 805.73997,328.31139 814.38262,324.76622 821.96879,322.00659 827.14298,320.13671 832.84297,319.86944 838.13053,321.42622 843.47709,322.59376 848.9589,322.73609 854.39848,322.66583 859.82283,323.07692 865.3956,322.7803 870.48432,320.718 879.57749,318.51392 889.00885,319.64934 898.24531,318.88696 903.06083,319.12952 908.15634,320.23486 912.75021,318.2013 921.21545,316.26543 929.90359,315.25605 938.5705,314.98457 939.91274,315.121 941.24624,315.41977 942.48837,315.95422"
       id="path893" />
    <rect
       style="display:inline;fill:#000000;stroke-width:0.120855"
       id="rect9687"
       width="10"
       height="10"
       x="5.6843419e-14"
       y="0"
       rx="2.4621284e-17" />
  </g>
</svg>
