<?xml version="1.0" encoding="UTF-8" standalone="no"?>
<!-- Created with Inkscape (http://www.inkscape.org/) -->

<svg
   width="284cm"
   height="147cm"
   viewBox="0 0 2840 1470"
   version="1.1"
   id="svg8914"
   inkscape:version="1.1.1 (c3084ef, 2021-09-22)"
   sodipodi:docname="5-districts.svg"
   xmlns:inkscape="http://www.inkscape.org/namespaces/inkscape"
   xmlns:sodipodi="http://sodipodi.sourceforge.net/DTD/sodipodi-0.dtd"
   xmlns="http://www.w3.org/2000/svg"
   xmlns:svg="http://www.w3.org/2000/svg">
  <sodipodi:namedview
     id="namedview8916"
     pagecolor="#ffffff"
     bordercolor="#666666"
     borderopacity="1.0"
     inkscape:pageshadow="2"
     inkscape:pageopacity="0.0"
     inkscape:pagecheckerboard="0"
     inkscape:document-units="mm"
     showgrid="false"
     units="cm"
     inkscape:zoom="0.071182177"
     inkscape:cx="5022.3246"
     inkscape:cy="2570.8683"
     inkscape:window-width="1440"
     inkscape:window-height="900"
     inkscape:window-x="0"
     inkscape:window-y="0"
     inkscape:window-maximized="0"
     inkscape:current-layer="layer1" />
  <defs
     id="defs8911" />
  <g
     inkscape:label="Layer 1"
     inkscape:groupmode="layer"
     id="layer1">
    <rect
       style="display:inline;fill:#000000;stroke-width:0.120855"
       id="rect9687-3"
       width="10"
       height="10"
       x="2830"
       y="1460"
       rx="2.4621284e-17" />
    <path
       style="display:inline;fill:none;stroke:#000000;stroke-width:0.264583px;stroke-linecap:butt;stroke-linejoin:miter;stroke-opacity:1"
       d="M 95.978297,843.20632 C 116.61107,841.61882 134.28085,829.29706 154.31012,825.10158 165.98939,822.6172 177.42832,819.14774 189.06516,816.5475 196.48155,815.61519 203.80595,815.20964 211.19217,814.15702 221.54925,814.22822 231.96683,815.11633 242.19286,812.88574 249.14096,811.69312 259.85521,807.20291 260.65816,818.0888 262.7377,831.60375 264.05969,845.37473 261.84507,858.98112 259.56667,879.41957 254.99147,900.22747 243.17064,917.44277 237.71512,927.79267 232.85413,938.61517 225.07349,947.48707 218.35613,957.93267 211.51501,968.98337 200.44853,975.35437 191.26431,982.03107 181.53394,988.68317 169.98176,990.13857 158.52548,992.77177 146.32824,991.94617 135.39909,996.63097 122.97846,999.58047 109.97928,998.70997 97.350277,1000.3782 80.973737,1002.6362 64.437017,1006.3301 47.830817,1004.0237 31.862477,1004.5854 15.975617,1006.515 0.00413698,1007.0147"
       id="path10406" />
    <path
       style="display:inline;fill:none;stroke:#000000;stroke-width:0.264583px;stroke-linecap:butt;stroke-linejoin:miter;stroke-opacity:1"
       d="M 180.40671,987.28787 C 175.21688,1000.2903 167.93928,1012.3716 162.90944,1025.4309 154.48646,1039.1251 149.82258,1054.6982 140.95526,1068.1502 138.99868,1071.3933 136.38292,1074.6698 136.62902,1078.6919"
       id="path10408" />
    <path
       style="display:inline;fill:none;stroke:#000000;stroke-width:0.264583px;stroke-linecap:butt;stroke-linejoin:miter;stroke-opacity:1"
       d="M 252.8083,1136.4207 C 252.47863,1123.4371 252.14101,1110.4174 253.61536,1097.4928 254.09205,1086.5852 251.67917,1075.2762 254.92437,1064.6657 260.73556,1051.3959 275.23469,1045.7872 284.61127,1035.5578 291.78133,1028.2649 299.749,1021.8387 308.43123,1016.4452 316.01937,1010.7681 321.09676,1002.5473 328.71836,996.87897 339.79918,987.75647 348.27015,975.97837 359.56568,967.07107 374.36131,954.46717 390.07297,942.01347 399.49159,924.59967 404.20747,915.60047 409.48611,905.31087 420.02755,902.27497 432.70278,896.38717 446.78451,894.70277 459.85023,889.89337 469.43752,887.12887 480.3733,882.96537 484.09266,872.75617 L 485.16679,871.34917"
       id="path10410" />
    <path
       style="display:inline;fill:none;stroke:#000000;stroke-width:0.264583px;stroke-linecap:butt;stroke-linejoin:miter;stroke-opacity:1"
       d="M 255.21365,893.71907 C 275.69786,886.61677 297.67098,892.52347 318.64104,888.57717 339.02978,886.13977 359.65152,885.48997 380.11841,886.97287 396.78051,885.27487 411.09134,875.03827 427.72493,873.00607 448.50862,869.45107 469.65928,871.96517 490.58,870.23017 513.10102,869.40467 535.6767,872.71537 558.1161,869.65417 574.8,867.90641 591.554,866.84071 608.3217,866.53834"
       id="path10412" />
    <path
       style="display:inline;fill:none;stroke:#000000;stroke-width:0.264583px;stroke-linecap:butt;stroke-linejoin:miter;stroke-opacity:1"
       d="M 256.57181,809.63948 C 256.51711,785.42869 256.66801,761.15459 258.76843,737.02593 258.81083,726.9353 267.66686,719.97786 276.85283,717.94805 296.8571,712.73869 316.33044,705.62679 336.46636,700.90439 350.7794,696.64925 364.52912,689.96805 379.25832,687.44981 392.00354,688.07787 404.37515,684.39338 416.85941,682.65918 425.87185,682.60178 430.56558,691.10132 434.36956,697.93841 438.17035,705.0755 446.69706,705.29084 453.75561,704.97989 464.6574,704.28647 475.55455,703.64825 486.4726,704.22935 500.05747,704.07478 513.60774,708.1962 527.0951,704.98533 535.6394,701.97181 545.2296,707.10345 552.9352,703.72772 L 553.5566,702.77413"
       id="path10420" />
    <path
       style="display:inline;fill:none;stroke:#000000;stroke-width:0.264583px;stroke-linecap:butt;stroke-linejoin:miter;stroke-opacity:1"
       d="M 154.2876,1043.5981 C 172.99112,1041.7982 192.09334,1042.7156 210.29884,1037.2786 226.73586,1033.1527 243.45861,1029.4899 260.49978,1029.8694 272.18268,1029.1507 283.85343,1028.0747 295.42229,1026.27 L 295.42285,1026.5013 295.42288,1026.5133"
       id="path10422" />
    <path
       style="display:inline;fill:none;stroke:#000000;stroke-width:0.264583px;stroke-linecap:butt;stroke-linejoin:miter;stroke-opacity:1"
       d="M 945.1339,149.03471 C 956.7281,145.01052 969.2178,146.69228 981.208,145.3737 991.5687,145.21198 1001.3237,149.33492 1009.361,155.57544 1018.2947,160.97813 1027.2178,155.48414 1034.2614,149.96008 1045.8827,143.80694 1058.6841,138.98958 1072.0308,139.35811 1082.9966,136.99988 1092.8107,141.25442 1102.8749,144.86095 1118.9275,145.21121 1135.3182,144.89325 1151.0345,140.90686 1160.9389,139.81993 1168.3753,132.15456 1177.9621,130.60424 1188.9185,129.73968 1199.8549,128.74126 1210.8279,128.12608 1211.774,128.00448 1212.7158,127.84137 1213.6419,127.6112"
       id="path10547" />
    <path
       style="display:inline;fill:none;stroke:#000000;stroke-width:0.264583px;stroke-linecap:butt;stroke-linejoin:miter;stroke-opacity:1"
       d="M 945.1339,254.00991 C 964.725,254.25421 982.0829,243.58162 1001.1042,240.58087 1012.2992,238.76223 1022.4149,229.43279 1034.3013,232.83993 1043.4221,235.75549 1049.413,244.18489 1058.5037,247.38422 1066.6617,253.74205 1076.9548,257.22208 1087.2347,254.7116 1101.4594,251.58349 1113.5904,242.41802 1128.0852,240.05433 1140.2439,237.76719 1152.5228,235.95559 1164.7964,234.49148 1176.1199,234.0418 1187.7993,236.89701 1198.7055,232.44731 1209.14,230.44395 1216.5996,222.27613 1226.3758,218.83655 1229.1227,217.65441 1231.8594,216.40213 1234.3512,214.73347"
       id="path10549" />
    <path
       style="display:inline;fill:none;stroke:#000000;stroke-width:0.264583px;stroke-linecap:butt;stroke-linejoin:miter;stroke-opacity:1"
       d="M 914.4268,381.83686 C 941.0238,377.14786 967.783,383.87673 994.4856,383.02435 992.4778,382.15468 1005.259,383.19181 1008.8626,383.42588 1043.3194,385.9509 1077.8761,386.23915 1112.4039,386.51945 1114.8114,386.53845 1117.2203,386.71114 1119.3784,387.9068"
       id="path10551" />
    <path
       style="display:inline;fill:none;stroke:#000000;stroke-width:0.264583px;stroke-linecap:butt;stroke-linejoin:miter;stroke-opacity:1"
       d="M 1118.6643,242.94109 C 1121.3805,261.61919 1119.5045,280.56537 1120.9217,299.3385 1121.2151,337.63055 1118.454,375.87984 1118.6736,414.17007 1119.1763,431.55597 1120.7406,448.91296 1119.8829,466.32369 1119.7249,475.29345 1119.5106,484.26988 1119.7362,493.2391"
       id="path10553" />
    <path
       style="display:inline;fill:none;stroke:#000000;stroke-width:0.264583px;stroke-linecap:butt;stroke-linejoin:miter;stroke-opacity:1"
       d="M 1121.5208,318.99456 C 1132.1132,319.80788 1142.3399,322.71273 1151.9857,327.06189 1163.6754,331.86192 1176.0541,336.17228 1188.8997,334.70608 1201.4148,333.98663 1214.9127,331.99381 1226.3629,338.48914 1234.9308,340.86128 1242.6436,345.00314 1249.4305,350.65561 1260.0864,358.63093 1269.4567,368.19924 1280.3792,375.83577 1291.8411,385.32709 1299.654,398.71257 1312.6568,406.41195 1317.7311,409.72366 1323.1982,412.46714 1328.9717,414.32918"
       id="path10668" />
    <path
       style="display:inline;fill:none;stroke:#000000;stroke-width:0.264583px;stroke-linecap:butt;stroke-linejoin:miter;stroke-opacity:1"
       d="M 1327.8985,238.53287 C 1334.954,233.7976 1342.7646,240.50887 1346.976,246.02018 1353.9692,254.55733 1362.0542,264.705 1374.177,264.75845 1387.434,265.43586 1400.4123,261.53916 1412.9971,257.86509 1423.38,254.32758 1432.6687,245.79716 1433.8003,234.40147 1436.2645,221.76732 1437.2561,208.81364 1441.2082,196.50976 1443.2274,184.33355 1445.7544,172.25007 1448.3465,160.20075 1451.7561,136.68735 1452.1204,112.82681 1451.7896,89.107791 1450.4123,70.224971 1450.8227,51.278911 1452.5721,32.434691 1452.8524,22.233031 1452.3282,12.023541 1451.3759,1.8675111"
       id="path10783" />
    <path
       style="display:inline;fill:none;stroke:#000000;stroke-width:0.264583px;stroke-linecap:butt;stroke-linejoin:miter;stroke-opacity:1"
       d="M 1429.5859,248.21738 C 1437.8991,264.13831 1444.6592,280.99906 1448.0779,298.66983 1452.2851,310.06314 1455.5008,321.96003 1460.8194,332.86121 1467.8291,342.61146 1479.2162,347.92046 1486.603,357.36316 1496.6581,367.6931 1508.7275,375.74277 1518.7089,386.16351 1526.0602,393.32169 1534.9514,398.89343 1544.9523,401.42543 1557.3609,405.97083 1567.1563,415.46663 1579.5728,420.07509 1588.3688,423.78624 1598.0931,424.86829 1606.3358,429.97111 1623.7289,439.40167 1638.5047,452.85255 1655.6192,462.74578 1661.1812,466.40845 1666.6308,470.26497 1671.6993,474.59292"
       id="path10785" />
    <path
       style="display:inline;fill:none;stroke:#000000;stroke-width:0.264583px;stroke-linecap:butt;stroke-linejoin:miter;stroke-opacity:1"
       d="M 1467.7187,340.82557 C 1462.2297,362.20982 1451.7059,382.22941 1449.157,404.36053 1445.0687,419.4582 1438.9459,433.98635 1436.2576,449.45676 1433.0402,462.46491 1427.8913,474.88787 1422.4917,487.09358 1421.4936,490.47761 1420.7324,494.03765 1418.6908,496.98837"
       id="path10787" />
    <path
       style="display:inline;fill:none;stroke:#000000;stroke-width:0.264583px;stroke-linecap:butt;stroke-linejoin:miter;stroke-opacity:1"
       d="M 1583.3276,3.0780811 C 1584.7727,31.691551 1580.583,60.143171 1578.663,88.628711 1580.084,109.23738 1583.8472,131.03249 1576.0186,150.83579 1570.9667,160.76009 1563.6908,169.34535 1558.4407,179.17613 1550.6351,191.81821 1541.5569,204.58712 1540.0539,219.81065 1538.1908,229.4048 1534.3426,239.16221 1536.7743,249.03915 1535.678,265.2292 1538.0398,281.35529 1538.5045,297.49548 1538.6177,311.18658 1533.4766,324.12734 1532.278,337.62914 1530.7184,355.23609 1536.2375,372.32525 1537.0763,389.80327 1537.3653,392.53778 1537.6896,395.26909 1538.0937,397.9892"
       id="path10789" />
    <path
       style="display:inline;fill:none;stroke:#000000;stroke-width:0.264583px;stroke-linecap:butt;stroke-linejoin:miter;stroke-opacity:1"
       d="M 1752.2013,0.05167105 C 1742.6405,22.585461 1734.1834,45.674901 1722.3326,67.149211 1715.647,83.900781 1706.8037,100.0308 1703.9006,118.03004 1701.5187,130.37172 1698.9697,142.72049 1694.9462,154.63747 1690.6655,175.5406 1694.0223,196.97801 1696.1758,217.9269 1698.8579,232.56383 1701.4612,247.51194 1698.9538,262.38065 1696.2578,283.61902 1687.3049,304.11945 1672.8535,319.98571 1667.2178,327.21876 1671.1736,336.68338 1673.0398,344.53583 1676.4855,358.93394 1688.2462,369.25367 1700.7508,376.07703 1710.5428,381.49027 1716.8235,391.40289 1727.1807,396.11204 1730.359,397.89366 1733.6632,399.45298 1737.0691,400.74851"
       id="path10791" />
    <path
       style="display:inline;fill:none;stroke:#000000;stroke-width:0.264583px;stroke-linecap:butt;stroke-linejoin:miter;stroke-opacity:1"
       d="M 1694.1651,191.35658 C 1701.8923,198.15805 1711.2155,202.60147 1721.0439,205.40201 1734.8905,210.46589 1748.9085,216.22225 1763.9273,215.99344 1774.3092,216.16799 1784.6565,217.1667 1794.8348,219.112 1805.0492,219.78038 1815.1153,221.69732 1825.176,223.34774 1838.5276,224.10337 1851.901,222.88546 1865.2623,223.46833 1877.011,223.33262 1888.8278,222.2879 1900.2049,219.23094 1909.7123,219.26014 1918.7315,225.1806 1928.3353,222.02906 1937.4198,220.8763 1946.719,219.1385 1954.6666,214.34191 1960.0059,206.69262 1963.8817,196.77553 1973.7285,193.93686 1983.1232,189.77791 1994.8628,189.59544 2003.5039,195.64856 2007.2721,196.80317 2011.8344,195.47232 2014.9939,198.37808"
       id="path10906" />
    <path
       style="display:inline;fill:none;stroke:#000000;stroke-width:0.264583px;stroke-linecap:butt;stroke-linejoin:miter;stroke-opacity:1"
       d="M 1120.1287,493.56289 C 1123.1921,516.90414 1120.1577,540.40779 1119.8339,563.81069 1123.0752,571.58676 1119.2567,580.225 1119.9493,588.37241 1118.941,597.78767 1122.8749,606.51571 1123.9481,615.66372 1124.926,625.9402 1125.1763,636.30475 1126.017,646.56966 1125.0924,661.87367 1120.5209,676.88274 1113.1707,690.3127 1112.8034,704.30422 1121.0715,716.70745 1121.5403,730.63096 1122.7579,744.62027 1123.7794,758.67321 1124.0062,772.70392 1122.945,784.78063 1120.6909,796.77369 1121.3513,808.95498 1121.3513,816.49262 1121.2553,824.08993 1119.7861,831.51059 1114.4347,837.42817 1119.4734,846.33575 1118.5567,853.55417 1118.9162,862.3464 1115.9626,870.92747 1117.2862,879.73767 1119.0085,889.21607 1111.4595,896.11067 1108.8167,904.45897 1108.0799,915.63267 1107.5875,927.11047 1103.8981,937.85797 1101.3903,944.63397 1104.4967,952.21367 1102.9179,959.39017 1100.9719,973.45407 1104.6958,987.43867 1103.502,1001.53 1102.6751,1008.8699 1102.5705,1017.6267 1098.5876,1023.8032"
       id="path10908" />
    <path
       style="display:inline;fill:none;stroke:#000000;stroke-width:0.264583px;stroke-linecap:butt;stroke-linejoin:miter;stroke-opacity:1"
       d="M 1382.7646,497.18067 C 1383.9646,514.50473 1382.8915,532.90765 1373.5946,548.09086 1368.9601,557.80927 1373.8552,568.21787 1380.9673,575.13649 1387.6632,582.3408 1388.6139,592.2262 1390.1157,601.44378 1391.1653,615.55538 1388.1849,629.55623 1386.9652,643.56396 1384.6416,660.3983 1375.9733,675.24636 1370.4998,691.07971 1366.2354,700.00196 1373.054,707.47733 1377.7113,714.37321 1381.6761,726.52749 1382.1415,741.43658 1374.1895,752.18947 1369.756,758.2031 1362.6594,761.5826 1357.7915,766.9964 1350.2336,779.94454 1345.8991,794.83053 1335.7751,806.20494 1329.6295,813.95439 1321.5503,821.72282 1321.7618,832.39708 1321.194,843.94091 1324.434,856.27576 1318.6831,867.02351 1315.6758,878.41597 1319.3651,890.10757 1320.2642,901.53157 1323.9715,919.95587 1332.0923,937.32607 1333.8837,956.16587 1337.1885,972.20247 1346.1259,987.08647 1345.803,1003.7781 1347.0251,1018.4935 1350.2813,1033.311 1358.0646,1046.0452 1362.9919,1056.3192 1370.9904,1066.8172 1367.9199,1078.909 1366.7948,1085.6418 1364.0985,1092.0112 1360.8077,1097.954"
       id="path10910" />
    <path
       style="display:inline;fill:none;stroke:#000000;stroke-width:0.264583px;stroke-linecap:butt;stroke-linejoin:miter;stroke-opacity:1"
       d="M 1650.369,838.63334 C 1635.1179,848.23474 1619.7617,857.73167 1603.7671,866.0265 1595.3972,871.85657 1586.9426,878.00567 1576.9894,880.74537 1564.6397,886.44267 1549.8007,880.92497 1537.961,888.39097 1529.5734,893.11537 1519.0883,896.04337 1513.8368,904.66897 1506.8158,917.14167 1493.9744,925.33747 1480.0797,928.03007 1470.1931,926.99987 1459.4502,926.92727 1450.3131,931.88247 1439.9289,935.31647 1436.2334,947.09027 1426.5217,951.03127 1416.4442,953.64167 1407.0034,958.14297 1399.0161,964.89197 1388.4093,973.06847 1380.6396,984.12497 1373.3383,995.15357 1365.7218,1004.5459 1358.9569,1014.7173 1350.0376,1022.9747"
       id="path10912" />
    <path
       style="display:inline;fill:none;stroke:#000000;stroke-width:0.264583px;stroke-linecap:butt;stroke-linejoin:miter;stroke-opacity:1"
       d="M 1884.8346,534.9879 C 1875.3996,544.06509 1861.8159,546.02789 1849.2858,546.34416 1831.8808,547.65218 1814.3141,547.28871 1797.1132,550.65025 1784.636,551.31017 1771.5849,551.40622 1759.7183,547.02587 1750.2895,542.83609 1742.5681,535.49995 1732.762,531.94865 1723.0461,528.1359 1712.495,526.42411 1703.5684,520.68508 1691.5682,514.65478 1684.1207,502.70779 1672.3243,496.46264"
       id="path10914" />
    <path
       style="display:inline;fill:none;stroke:#000000;stroke-width:0.264583px;stroke-linecap:butt;stroke-linejoin:miter;stroke-opacity:1"
       d="M 1699.6648,518.83216 C 1704.5893,534.93381 1716.6085,547.24364 1727.4326,559.55427 1739.3148,576.80105 1747.6154,596.22288 1755.8296,615.36174 1759.0409,627.16129 1769.5533,635.79794 1770.8583,648.31349 1773.1768,660.19374 1776.9233,672.62101 1786.666,680.6042 1797.6462,690.82437 1812.9923,694.50754 1827.6486,694.2805 1842.64,695.24312 1857.8761,694.4047 1872.2575,689.78541 1885.6246,686.48741 1899.5576,685.38353 1912.5894,680.80395"
       id="path10916" />
    <path
       style="display:inline;fill:none;stroke:#000000;stroke-width:0.264583px;stroke-linecap:butt;stroke-linejoin:miter;stroke-opacity:1"
       d="M 1991.3116,859.89012 C 1972.4054,863.00224 1952.9616,864.54683 1934.0488,860.58959 1923.1519,859.32728 1912.5077,856.90398 1902.2749,852.9889 1893.3069,849.9838 1884.5995,854.71264 1875.6306,855.15469 1864.4697,856.41016 1852.9719,857.93635 1842.0494,854.36893 1834.8265,852.16317 1827.3205,850.69614 1820.2273,848.2375 1808.9395,842.42841 1799.7049,833.19528 1787.7716,828.51698 1776.0429,822.38047 1762.9665,817.86545 1749.5517,819.44823 1734.3407,820.12431 1718.9278,818.62023 1704.0217,822.56051 1685.7109,826.2877 1668.6907,834.10979 1651.4269,840.95205 L 1650.039,841.43351"
       id="path10920" />
    <path
       style="display:inline;fill:none;stroke:#000000;stroke-width:0.264583px;stroke-linecap:butt;stroke-linejoin:miter;stroke-opacity:1"
       d="M 328.18245,998.57727 C 339.71719,998.67207 351.25129,998.01877 362.72034,996.84227 366.20854,996.96667 369.57585,996.05667 372.98103,995.49197 376.91034,995.08167 380.85257,994.75817 384.71804,993.90707 390.12817,993.25907 395.59505,993.72407 401.01827,993.24427 403.69524,993.13067 406.42493,993.76217 408.60631,995.35327 414.26441,997.83587 420.62756,997.71527 426.68302,997.42067 433.58292,996.89847 440.48469,996.40307 447.40527,996.25687 451.1622,996.19917 454.8883,995.68067 458.60816,995.25737 462.01331,995.11957 465.52226,995.27247 468.78115,994.10617 472.31083,993.52937 473.88414,997.24987 474.88755,999.90937 476.71171,1002.5465 476.75522,1005.7497 477.73341,1008.6863 479.485,1014.4771 480.52107,1020.4835 482.83425,1026.0935 483.79959,1029.3325 485.32968,1032.4423 485.42134,1035.8901 L 485.45893,1036.4068 485.48914,1036.9257"
       id="path859" />
    <path
       style="display:inline;fill:none;stroke:#000000;stroke-width:0.264583px;stroke-linecap:butt;stroke-linejoin:miter;stroke-opacity:1"
       d="M 1838.1642,694.63463 C 1838.1207,696.40435 1838.421,698.26752 1837.6828,699.94062 1837.4229,700.50226 1837.0066,700.9746 1836.8375,701.57933 1835.4308,705.16241 1834.466,708.94712 1832.4999,712.28784 1831.3237,714.57646 1831.2024,717.20268 1830.393,719.61484 1829.8998,721.09146 1829.9496,722.66721 1829.8916,724.20146 1829.5498,727.04683 1829.4728,730.01512 1830.4328,732.75635 1831.0126,734.89339 1831.6905,737.00846 1832.5883,739.03528 1833.4513,741.02377 1834.5165,742.92149 1835.7369,744.71162 1837.2604,747.28713 1839.218,749.59044 1840.5727,752.26837 1841.5252,753.8488 1842.7996,755.20893 1844.1734,756.43021 1845.3126,758.39567 1846.9742,759.99387 1848.7314,761.40636 1849.9152,763.13095 1851.7848,764.16382 1853.3272,765.51809 1855.3161,767.42145 1857.2247,769.40956 1859.2703,771.25347 1860.9337,772.90752 1862.4847,774.71355 1863.5856,776.79753 1865.5382,778.36266 1866.9155,780.50978 1868.8348,782.1104 1871.3358,784.87594 1873.3788,788.04281 1876.1072,790.60419 1878.199,792.72996 1879.634,795.46043 1882.0171,797.30487 1882.0998,797.11033 1881.3337,796.53312 1881.6459,797.09334 1881.9704,797.46009 1882.3354,797.78941 1882.6473,798.16953 1884.2207,799.87639 1885.9898,801.54555 1886.8026,803.77715 1887.376,805.49619 1887.8618,807.24251 1888.2993,809.0008 1888.6956,810.53492 1889.1092,812.06963 1889.6931,813.54493 1889.5618,815.23609 1890.3868,816.82294 1891.3788,818.13371 1892.1066,819.17348 1892.9972,820.09264 1894.0132,820.85305 1895.3782,821.89768 1896.8595,822.78687 1898.1739,823.89748 1900.9088,825.68558 1903.1185,828.19266 1904.8075,830.9727 1906.0565,832.4958 1907.7502,833.68155 1908.6162,835.49629 1909.3664,836.43164 1910.0805,837.39929 1910.6923,838.43275 1912.2219,840.96923 1913.3881,843.70114 1914.8457,846.27741 1915.6599,848.46707 1916.2994,850.71653 1917.0616,852.92379 1917.5146,854.51964 1917.8743,856.15658 1918.6007,857.65836"
       id="path1984" />
  </g>
</svg>
