<svg><MetaInfo xmlns="http://www.prognoz.ru"><Geo><GeoItem X="0" Y="0" Latitude="74.96" Longitude="-139.77"/><GeoItem X="106952" Y="55176" Latitude="-59.16" Longitude="139.25"/></Geo></MetaInfo><polygon id="path2633" points="11538,8268,11538,8280,11538,8291,11538,8303,11538,8315,11538,8327,11538,8338,11538,8350,11538,8362,11538,8374" />
<polygon id="path2635" points="11483,8318,11485,8317,11488,8317,11490,8316,11492,8315,11495,8314,11497,8314,11499,8313,11502,8313,11504,8313,11507,8313,11510,8314,11512,8314,11515,8315,11517,8316,11520,8317,11522,8318,11525,8319,11528,8320,11532,8321,11537,8322,11541,8322,11546,8323,11551,8323,11555,8324,11560,8324,11564,8325,11569,8325,11571,8325,11573,8325,11575,8325,11577,8325,11579,8325,11581,8325,11583,8325,11585,8325,11587,8325,11592,8326,11594,8327,11596,8328,11596,8328,11595,8329,11595,8329,11594,8329,11594,8329,11596,8329" />
<polygon id="path2649" points="16917,5470,16918,5475,16919,5480,16920,5485,16920,5491,16920,5496,16921,5501,16921,5506,16921,5512,16921,5517,16921,5518,16921,5520,16921,5522,16922,5523,16922,5525,16922,5526,16922,5528,16921,5529,16921,5530,16921,5531,16920,5530,16920,5530,16920,5530,16919,5529,16919,5529,16919,5528,16918,5528,16918,5528" />
<polygon id="path2652" points="16894,5496,16900,5497,16906,5498,16913,5499,16919,5500,16925,5501,16931,5502,16938,5502,16944,5502,16950,5501" />
<polygon id="path2654" points="16790,6120,16790,6127,16790,6133,16790,6136,16790,6139,16790,6142,16789,6145,16789,6150,16789,6157,16788,6167" />
<polygon id="path2656" points="16766,6149,16772,6150,16778,6151,16783,6151,16789,6150,16795,6150,16801,6149,16807,6149,16813,6150,16819,6151" />
<polygon id="path2658" points="16968,6565,16969,6573,16970,6578,16971,6582,16972,6584,16972,6587,16972,6590,16972,6595,16972,6601,16973,6611" />
<polygon id="path2660" points="16945,6588,16951,6588,16958,6588,16965,6589,16971,6589,16978,6590,16984,6591,16991,6592,16997,6593,17004,6594" />
<polygon id="path2662" points="17395,6212,17396,6219,17397,6226,17397,6232,17397,6239,17397,6246,17396,6253,17396,6260,17395,6267,17395,6274" />
<polygon id="path2664" points="17374,6244,17380,6245,17385,6246,17391,6247,17397,6248,17402,6248,17408,6249,17413,6249,17419,6249,17425,6248" />
<polygon id="path2666" points="18040,5687,18039,5693,18039,5699,18039,5706,18039,5712,18038,5719,18038,5725,18038,5731,18037,5738,18037,5744" />
<polygon id="path2668" points="18013,5717,18019,5719,18024,5720,18030,5721,18036,5722,18041,5723,18047,5724,18053,5725,18058,5726,18064,5727" />
<polygon id="path2670" points="19355,5420,19355,5432,19354,5440,19354,5445,19354,5449,19354,5453,19354,5457,19354,5462,19354,5471,19354,5483" />
<polygon id="path2672" points="19324,5446,19333,5448,19340,5450,19345,5451,19348,5451,19351,5452,19355,5452,19360,5453,19368,5453,19378,5454" />
<polygon id="path2674" points="19445,5810,19445,5821,19445,5831,19444,5842,19443,5852,19442,5863,19441,5873,19440,5884,19439,5894,19437,5904" />
<polygon id="path2676" points="19411,5854,19418,5855,19424,5856,19429,5857,19433,5858,19437,5859,19442,5860,19447,5860,19454,5861,19462,5862,19467,5863,19471,5864,19475,5865,19477,5865,19478,5866,19479,5866,19480,5865,19480,5864,19480,5862" />
<polygon id="path2678" points="18867,6624,18867,6630,18867,6635,18867,6637,18867,6640,18866,6642,18866,6646,18866,6652,18866,6660,18865,6672" />
<polygon id="path2680" points="18836,6650,18843,6651,18850,6651,18857,6652,18864,6653,18871,6654,18878,6655,18884,6656,18891,6657,18898,6657" />
<polygon id="path2682" points="18635,7017,18637,7029,18638,7037,18639,7043,18639,7047,18639,7050,18640,7053,18640,7058,18640,7065,18641,7074" />
<polygon id="path2684" points="18620,7048,18627,7048,18633,7049,18640,7049,18646,7050,18653,7051,18660,7051,18666,7052,18673,7052,18679,7053" />
<polygon id="path2686" points="24553,7006,24553,7026,24553,7040,24553,7050,24553,7057,24552,7064,24551,7072,24550,7083,24547,7100,24544,7125" />
<polygon id="path2688" points="24495,7052,24509,7056,24524,7059,24538,7061,24553,7062,24567,7063,24582,7064,24596,7065,24611,7067,24625,7070" />
<polygon id="path2690" points="30687,7664,30684,7695,30683,7717,30681,7732,30680,7742,30680,7751,30680,7760,30680,7773,30680,7791,30680,7818" />
<polygon id="path2692" points="30628,7725,30657,7728,30677,7729,30690,7730,30700,7731,30708,7732,30716,7734,30728,7738,30745,7743,30769,7749" />
<polygon id="path2694" points="35098,8489,35098,8512,35097,8534,35097,8557,35096,8579,35095,8602,35094,8625,35094,8647,35093,8670,35093,8692" />
<polygon id="path2696" points="35023,8577,35040,8578,35058,8578,35076,8579,35093,8580,35111,8581,35129,8583,35146,8584,35164,8585,35182,8586" />
<polygon id="path2698" points="35606,10128,35606,10151,35606,10174,35605,10197,35604,10220,35603,10243,35602,10266,35600,10289,35598,10312,35597,10335" />
<polygon id="path2700" points="35522,10238,35541,10233,35561,10229,35582,10228,35602,10228,35622,10229,35643,10232,35663,10235,35683,10239,35703,10243" />
<polygon id="path2702" points="36323,13935,36325,13973,36327,13999,36328,14016,36329,14030,36329,14042,36328,14056,36327,14077,36325,14107,36323,14151" />
<polygon id="path2704" points="36236,14040,36232,14050,36245,14054,36271,14052,36304,14048,36340,14041,36374,14036,36401,14032,36417,14033,36416,14040" />
<polygon id="path2706" points="17731,9208,17732,9217,17733,9226,17734,9236,17735,9245,17736,9255,17736,9264,17736,9274,17737,9283,17737,9292" />
<polygon id="path2708" points="17696,9251,17714,9251,17727,9252,17736,9252,17743,9252,17747,9252,17752,9251,17759,9251,17769,9250,17783,9249" />
<polygon id="path2712" points="17412,10135,17412,10147,17412,10158,17412,10170,17412,10181,17413,10193,17414,10204,17414,10216,17415,10227,17415,10239" />
<polygon id="path2714" points="17379,10195,17396,10194,17408,10194,17416,10193,17422,10193,17426,10192,17430,10192,17435,10192,17442,10192,17453,10192" />
<polygon id="path2716" points="19395,9742,19397,9751,19398,9757,19399,9761,19399,9764,19398,9768,19398,9774,19397,9782,19396,9794,19395,9811" />
<polygon id="path2718" points="19346,9775,19357,9777,19367,9779,19378,9780,19388,9781,19399,9782,19410,9783,19420,9783,19431,9783,19442,9783" />
<polygon id="path2720" points="18801,9920,18800,9942,18799,9957,18798,9968,18798,9975,18798,9980,18798,9985,18798,9992,18798,10001,18798,10015" />
<polygon id="path2722" points="18749,9961,18759,9962,18770,9964,18781,9965,18791,9967,18802,9968,18812,9970,18823,9971,18834,9973,18844,9974" />
<polygon id="path2724" points="18612,10173,18613,10190,18614,10202,18615,10210,18615,10216,18615,10221,18615,10228,18615,10237,18615,10251,18615,10271" />
<polygon id="path2726" points="18563,10220,18575,10219,18586,10219,18597,10219,18608,10220,18619,10220,18631,10221,18642,10222,18653,10224,18664,10225" />
<polygon id="path2728" points="18359,10048,18359,10059,18359,10071,18358,10082,18358,10094,18357,10105,18357,10117,18356,10128,18356,10140,18356,10151" />
<polygon id="path2730" points="18310,10094,18327,10094,18339,10094,18347,10094,18353,10094,18358,10094,18364,10095,18372,10097,18383,10099,18400,10102" />
<polygon id="path2732" points="18064,10351,18063,10363,18062,10372,18061,10378,18061,10382,18061,10387,18061,10393,18061,10402,18061,10414,18061,10432" />
<polygon id="path2734" points="18020,10397,18030,10395,18040,10393,18050,10392,18060,10391,18070,10391,18080,10391,18090,10392,18100,10393,18110,10394" />
<polygon id="path2736" points="16410,12008,16414,12022,16416,12037,16418,12052,16420,12067,16420,12081,16420,12096,16420,12111,16420,12126,16420,12141" />
<polygon id="path2738" points="16356,12066,16379,12061,16395,12058,16406,12055,16414,12054,16423,12053,16435,12053,16451,12053,16476,12052,16511,12050" />
<polygon id="path2740" points="18621,12237,18622,12250,18622,12259,18623,12265,18623,12269,18623,12273,18622,12279,18621,12286,18620,12297,18619,12313" />
<polygon id="path2742" points="18591,12275,18599,12276,18607,12276,18615,12277,18622,12278,18630,12279,18638,12280,18646,12281,18654,12282,18662,12283" />
<polygon id="path579" points="21240,11370,21240,11373,21240,11377,21239,11380,21239,11384,21239,11387,21240,11391,21240,11395,21240,11398,21240,11402,21240,11403,21240,11404,21240,11404,21240,11405,21240,11406,21240,11407,21240,11408,21240,11409,21240,11410,21240,11416,21241,11419,21241,11419,21241,11417,21241,11415,21241,11414,21241,11414,21241,11417,21241,11424,21241,11427,21242,11429,21241,11429,21241,11429,21241,11429,21241,11429,21241,11430,21242,11431,21242,11434" />
<polygon id="path581" points="21211,11398,21215,11397,21220,11397,21224,11397,21228,11397,21233,11398,21237,11399,21241,11399,21245,11400,21249,11400,21252,11400,21255,11401,21258,11401,21261,11401,21264,11401,21267,11401,21269,11402,21272,11402,21275,11402" />
<polygon id="path696" points="16437,13140,16435,13165,16433,13190,16432,13216,16432,13241,16432,13267,16432,13292,16432,13318,16432,13343,16433,13369" />
<polygon id="path698" points="16374,13243,16394,13236,16414,13231,16435,13229,16456,13229,16478,13230,16499,13232,16521,13234,16542,13237,16563,13238" />
<polygon id="path700" points="17237,13647,17237,13671,17237,13695,17237,13719,17235,13743,17234,13767,17232,13791,17229,13815,17226,13839,17223,13863" />
<polygon id="path702" points="17120,13742,17143,13739,17166,13738,17189,13739,17212,13740,17235,13743,17258,13747,17281,13751,17304,13755,17327,13760,17340,13763,17349,13765,17354,13766,17356,13767,17356,13768,17357,13768,17358,13769,17361,13769,17367,13769" />
<polygon id="path704" points="17246,14344,17247,14380,17248,14405,17249,14423,17250,14435,17250,14446,17252,14458,17253,14474,17256,14498,17259,14532" />
<polygon id="path706" points="17178,14442,17201,14441,17224,14439,17247,14438,17270,14438,17293,14437,17316,14436,17339,14436,17362,14435,17385,14433" />
<polygon id="path708" points="12654,14375,12655,14391,12655,14407,12656,14423,12656,14439,12657,14455,12657,14471,12658,14487,12658,14503,12659,14519" />
<polygon id="path710" points="12583,14465,12606,14463,12628,14461,12650,14460,12671,14459,12692,14458,12713,14459,12735,14460,12757,14462,12780,14465" />
<polygon id="path712" points="12515,14874,12520,14965,12521,15003,12521,15004,12520,14983,12519,14953,12518,14932,12518,14933,12520,14971,12524,15062" />
<polygon id="path714" points="12448,14977,12468,14975,12488,14973,12508,14971,12528,14970,12548,14970,12567,14970,12587,14970,12607,14971,12628,14973" />
<polygon id="path716" points="12008,15754,12008,15773,12009,15792,12011,15811,12012,15830,12013,15849,12015,15868,12016,15887,12016,15906,12017,15925" />
<polygon id="path718" points="11949,15849,11964,15852,11979,15853,11994,15854,12009,15853,12024,15852,12039,15851,12054,15850,12069,15849,12084,15849,12087,15849,12090,15849,12093,15850,12096,15850,12099,15851,12102,15852,12105,15852,12108,15853,12111,15853" />
<polygon id="path720" points="13593,16060,13593,16092,13594,16114,13594,16130,13594,16140,13593,16150,13593,16160,13592,16173,13591,16193,13589,16221" />
<polygon id="path722" points="13526,16150,13543,16145,13560,16142,13577,16141,13594,16141,13611,16143,13628,16145,13645,16148,13662,16151,13679,16154" />
<polygon id="path726" points="14024,17029,14028,17050,14030,17071,14031,17091,14031,17112,14030,17133,14030,17154,14030,17175,14031,17196,14034,17217" />
<polygon id="path728" points="13983,17159,13995,17158,14007,17157,14019,17155,14031,17153,14043,17151,14055,17149,14067,17148,14079,17147,14091,17147" />
<polygon id="path730" points="14701,16607,14702,16628,14703,16643,14704,16653,14704,16660,14704,16667,14704,16675,14703,16687,14702,16703,14701,16727" />
<polygon id="path732" points="14637,16686,14651,16684,14665,16683,14680,16683,14694,16683,14708,16684,14722,16685,14736,16686,14750,16688,14764,16689" />
<polygon id="path734" points="15166,15462,15169,15495,15171,15519,15173,15535,15174,15546,15174,15554,15175,15561,15175,15571,15175,15585,15175,15606" />
<polygon id="path736" points="15094,15539,15112,15539,15131,15539,15149,15539,15168,15538,15187,15537,15205,15537,15224,15538,15242,15539,15260,15543" />
<polygon id="path738" points="17569,15507,17575,15529,17579,15544,17581,15554,17583,15562,17584,15569,17584,15577,17585,15590,17586,15607,17587,15633" />
<polygon id="path740" points="17538,15570,17557,15565,17577,15563,17597,15562,17618,15562,17638,15563,17658,15564,17678,15565,17698,15564,17717,15561" />
<polygon id="path742" points="17646,16010,17646,16029,17646,16048,17646,16067,17646,16086,17645,16105,17645,16124,17644,16143,17643,16162,17641,16181" />
<polygon id="path744" points="17587,16087,17599,16086,17614,16084,17630,16082,17648,16081,17667,16079,17685,16078,17703,16077,17720,16077,17735,16078,17740,16079,17743,16080,17745,16081,17747,16082,17748,16082,17750,16082,17751,16082,17754,16082,17758,16082" />
<polygon id="path746" points="18351,16006,18353,16025,18355,16044,18356,16063,18356,16082,18356,16101,18356,16120,18356,16139,18355,16158,18355,16177" />
<polygon id="path748" points="18292,16082,18325,16080,18347,16079,18362,16078,18373,16078,18382,16078,18392,16079,18406,16080,18426,16083,18454,16087" />
<polygon id="path750" points="18005,16469,18008,16500,18011,16521,18012,16536,18013,16547,18014,16556,18014,16566,18014,16580,18014,16601,18014,16630" />
<polygon id="path752" points="17938,16545,17959,16547,17980,16549,18002,16551,18023,16552,18045,16553,18066,16553,18088,16554,18109,16554,18131,16554" />
<polygon id="path754" points="14928,14903,14930,14917,14932,14932,14933,14946,14934,14961,14934,14975,14935,14990,14935,15004,14934,15019,14934,15033" />
<polygon id="path756" points="14867,14973,14884,14972,14900,14972,14917,14973,14933,14974,14949,14976,14966,14978,14982,14981,14999,14982,15015,14984" />
<polygon id="path758" points="15566,18665,15569,18693,15572,18713,15574,18726,15575,18736,15576,18745,15577,18757,15578,18773,15580,18797,15584,18831" />
<polygon id="path760" points="15512,18769,15531,18766,15550,18765,15570,18764,15589,18763,15609,18763,15628,18763,15648,18764,15667,18764,15687,18764" />
<polygon id="path763" points="17964,18495,17968,18531,17970,18556,17971,18574,17973,18586,17973,18596,17974,18607,17975,18622,17976,18643,17978,18674" />
<polygon id="path765" points="17888,18566,17894,18567,17899,18567,17905,18568,17910,18568,17916,18569,17921,18569,17927,18570,17932,18570,17938,18571,17951,18571,17965,18572,17979,18572,17993,18572,18007,18573,18021,18573,18035,18574,18049,18574,18063,18575,18075,18578,18084,18580,18092,18582,18097,18583,18101,18584,18102,18584,18102,18584,18099,18584,18095,18584" />
<polygon id="path767" points="18140,19254,18140,19275,18140,19296,18140,19317,18139,19338,18138,19359,18137,19380,18136,19400,18135,19421,18135,19442" />
<polygon id="path769" points="18050,19339,18072,19332,18095,19328,18118,19325,18141,19325,18164,19325,18187,19327,18210,19328,18233,19330,18256,19330" />
<polygon id="path771" points="19903,17398,19903,17408,19903,17418,19903,17428,19903,17438,19903,17447,19903,17457,19903,17467,19903,17477,19903,17487" />
<polygon id="path773" points="19850,17459,19862,17458,19874,17456,19886,17455,19898,17454,19910,17452,19922,17451,19935,17449,19947,17448,19959,17447" />
<polygon id="path775" points="22779,10786,22779,10817,22779,10839,22779,10854,22779,10865,22779,10874,22779,10885,22780,10901,22781,10923,22782,10956" />
<polygon id="path777" points="22709,10892,22727,10887,22740,10883,22750,10881,22759,10880,22768,10879,22780,10879,22796,10879,22818,10880,22849,10880,22855,10880,22860,10881,22862,10882,22864,10883,22865,10883,22866,10883,22866,10883,22868,10882,22870,10880" />
<polygon id="path779" points="24673,17565,24676,17600,24678,17625,24680,17642,24681,17654,24682,17664,24682,17675,24683,17690,24684,17713,24686,17745" />
<polygon id="path781" points="24600,17680,24636,17677,24662,17675,24679,17673,24691,17672,24702,17672,24714,17673,24730,17674,24754,17677,24789,17680" />
<polygon id="path783" points="24489,18710,24491,18732,24492,18747,24493,18758,24494,18766,24494,18773,24494,18782,24494,18795,24494,18814,24494,18841" />
<polygon id="path785" points="24421,18792,24436,18787,24453,18784,24471,18783,24490,18783,24509,18784,24528,18786,24547,18789,24564,18791,24581,18792" />
<polygon id="path787" points="25287,18783,25287,18796,25287,18810,25287,18823,25287,18837,25287,18850,25287,18864,25287,18877,25287,18891,25287,18904" />
<polygon id="path789" points="25229,18846,25259,18844,25279,18843,25294,18842,25304,18841,25312,18841,25322,18842,25334,18843,25353,18844,25380,18846" />
<polygon id="path799" points="26339,19386,26342,19404,26343,19421,26343,19438,26342,19456,26340,19473,26338,19490,26335,19508,26332,19525,26329,19542" />
<polygon id="path801" points="26241,19474,26264,19472,26286,19470,26308,19467,26331,19465,26353,19464,26375,19464,26398,19465,26419,19468,26441,19474" />
<polygon id="path803" points="25943,19915,25945,19931,25946,19947,25947,19963,25947,19979,25947,19996,25948,20012,25948,20028,25949,20044,25950,20060" />
<polygon id="path805" points="25881,19998,25896,19997,25911,19996,25926,19996,25941,19996,25956,19996,25971,19997,25986,19997,26001,19998,26016,19998" />
<polygon id="path807" points="25587,20282,25590,20302,25593,20316,25595,20326,25596,20333,25597,20339,25597,20346,25597,20355,25596,20369,25596,20389" />
<polygon id="path809" points="25548,20346,25565,20345,25577,20344,25585,20344,25591,20344,25596,20343,25601,20343,25608,20342,25618,20340,25633,20338" />
<polygon id="path811" points="26013,20314,26014,20335,26014,20350,26015,20361,26015,20368,26015,20374,26015,20381,26015,20391,26015,20405,26015,20426" />
<polygon id="path813" points="25959,20382,25975,20377,25985,20373,25993,20371,25998,20369,26004,20369,26011,20368,26021,20368,26036,20368,26056,20367" />
<polygon id="path815" points="26222,20136,26222,20144,26223,20151,26223,20159,26223,20166,26223,20174,26224,20182,26224,20189,26224,20197,26224,20204" />
<polygon id="path817" points="26176,20197,26190,20192,26200,20188,26207,20186,26213,20184,26218,20184,26225,20184,26234,20184,26248,20185,26268,20185" />
<polygon id="path1012" points="26110,18571,26106,18587,26104,18603,26102,18619,26101,18635,26101,18651,26100,18667,26101,18683,26101,18700,26101,18716" />
<polygon id="path1014" points="26033,18652,26053,18652,26067,18652,26076,18652,26083,18652,26089,18653,26097,18653,26108,18654,26124,18655,26146,18657" />
<polygon id="path1209" points="25561,19074,25560,19091,25559,19108,25560,19124,25561,19141,25562,19158,25563,19174,25564,19191,25565,19207,25566,19224" />
<polygon id="path1211" points="25507,19142,25523,19139,25539,19138,25555,19138,25571,19139,25587,19140,25603,19140,25619,19141,25636,19140,25652,19138" />
<polygon id="path1213" points="36055,14261,36049,14300,36045,14326,36042,14345,36040,14358,36039,14370,36037,14384,36036,14404,36035,14433,36032,14475" />
<polygon id="path1215" points="35955,14368,35983,14368,36002,14368,36015,14368,36025,14369,36036,14371,36050,14374,36071,14378,36102,14383,36147,14391" />
<polygon id="path1217" points="35305,15079,35304,15111,35304,15133,35303,15148,35303,15159,35303,15166,35302,15174,35300,15184,35298,15199,35294,15221" />
<polygon id="path1219" points="35252,15144,35273,15147,35288,15149,35298,15151,35306,15152,35313,15153,35321,15154,35333,15156,35350,15159,35374,15163" />
<polygon id="path1221" points="34545,14590,34546,14612,34547,14626,34548,14637,34548,14644,34548,14652,34548,14661,34547,14675,34546,14695,34545,14724" />
<polygon id="path1223" points="34487,14647,34502,14646,34517,14647,34532,14647,34547,14649,34562,14650,34576,14652,34591,14653,34606,14654,34621,14655" />
<polygon id="path1225" points="34908,15397,34906,15425,34905,15444,34905,15457,34904,15467,34904,15475,34903,15484,34903,15497,34902,15515,34900,15542" />
<polygon id="path1227" points="34847,15469,34862,15469,34878,15469,34894,15470,34910,15471,34925,15473,34941,15475,34957,15477,34972,15479,34988,15481" />
<polygon id="path1229" points="34353,16001,34353,16015,34353,16024,34353,16031,34353,16037,34353,16044,34352,16054,34352,16070,34351,16094,34350,16127" />
<polygon id="path1231" points="34292,16077,34306,16072,34320,16068,34334,16066,34349,16064,34363,16064,34378,16064,34393,16065,34408,16065,34422,16066" />
<polygon id="path1233" points="35458,16303,35458,16331,35458,16351,35458,16364,35458,16374,35458,16383,35457,16394,35455,16410,35453,16434,35451,16467" />
<polygon id="path1235" points="35378,16395,35390,16387,35405,16384,35422,16384,35441,16386,35461,16388,35481,16391,35499,16393,35516,16393,35531,16391" />
<polygon id="path1237" points="33252,15825,33257,15857,33261,15880,33264,15896,33266,15906,33267,15915,33267,15923,33268,15933,33268,15948,33267,15970" />
<polygon id="path1239" points="33210,15897,33236,15892,33254,15888,33266,15885,33275,15883,33282,15882,33290,15881,33301,15881,33317,15880,33340,15878" />
<polygon id="path1241" points="31895,14945,31895,14956,31896,14968,31896,14979,31897,14990,31897,15001,31897,15012,31898,15023,31898,15034,31899,15045" />
<polygon id="path1243" points="31834,15010,31852,15006,31870,15004,31889,15003,31907,15004,31925,15005,31943,15007,31961,15008,31979,15008,31998,15007" />
<polygon id="path1245" points="29663,16835,29664,16856,29665,16870,29666,16880,29666,16888,29666,16894,29666,16902,29666,16913,29666,16928,29666,16951" />
<polygon id="path1247" points="29615,16900,29628,16900,29642,16900,29655,16901,29669,16903,29682,16904,29696,16906,29709,16907,29723,16908,29736,16908" />
<polygon id="path1249" points="34017,18130,34016,18143,34016,18155,34016,18167,34015,18180,34015,18192,34014,18204,34014,18217,34013,18229,34013,18241" />
<polygon id="path1251" points="33948,18199,33962,18198,33978,18197,33995,18195,34012,18193,34030,18192,34046,18193,34062,18195,34075,18199,34086,18207" />
<polygon id="path1253" points="34587,19209,34583,19234,34581,19252,34580,19264,34579,19273,34579,19281,34579,19291,34579,19305,34579,19325,34579,19354" />
<polygon id="path1255" points="34529,19293,34555,19288,34572,19285,34584,19283,34593,19282,34601,19281,34609,19281,34621,19282,34638,19283,34663,19285" />
<polygon id="path1257" points="32476,19033,32480,19059,32483,19078,32486,19090,32487,19099,32488,19107,32488,19116,32488,19128,32488,19145,32487,19170" />
<polygon id="path1259" points="32430,19102,32460,19100,32481,19099,32495,19098,32505,19098,32514,19098,32523,19098,32535,19098,32553,19098,32579,19098" />
<polygon id="path1261" points="15960,20926,15958,20950,15956,20973,15956,20996,15957,21020,15959,21043,15961,21066,15963,21090,15964,21113,15964,21136" />
<polygon id="path1263" points="15904,21023,15926,21015,15947,21010,15968,21008,15988,21008,16007,21010,16027,21013,16047,21016,16068,21020,16090,21023" />
<polygon id="path1265" points="16829,21254,16832,21281,16835,21300,16836,21312,16837,21322,16838,21331,16838,21341,16839,21355,16840,21377,16841,21407" />
<polygon id="path1267" points="16781,21338,16812,21334,16833,21331,16848,21328,16859,21327,16867,21326,16877,21326,16889,21327,16908,21329,16934,21330" />
<polygon id="path1269" points="17221,20918,17224,20945,17227,20964,17228,20977,17229,20986,17230,20995,17230,21007,17231,21023,17232,21046,17233,21080" />
<polygon id="path1271" points="17156,21007,17179,21002,17195,20998,17205,20996,17214,20994,17222,20995,17232,20996,17246,20997,17267,21000,17298,21003" />
<polygon id="path1273" points="18179,20724,18180,20750,18182,20768,18182,20780,18183,20790,18183,20798,18183,20810,18183,20825,18183,20849,18183,20882" />
<polygon id="path1275" points="18102,20813,18117,20806,18134,20802,18151,20799,18168,20797,18186,20796,18204,20796,18221,20796,18239,20797,18255,20797" />
<polygon id="path1277" points="17936,21573,17941,21596,17945,21619,17947,21642,17948,21666,17948,21689,17948,21713,17947,21736,17946,21760,17944,21783" />
<polygon id="path1279" points="17876,21682,17893,21682,17910,21681,17928,21680,17945,21678,17963,21677,17981,21676,17998,21676,18016,21676,18033,21678,18054,21680,18066,21682,18071,21684,18071,21685,18069,21685,18065,21686,18062,21686,18062,21686,18065,21686" />
<polygon id="path1281" points="17278,22114,17283,22139,17287,22156,17289,22168,17291,22176,17292,22185,17293,22196,17295,22212,17298,22235,17302,22268" />
<polygon id="path1283" points="17213,22211,17239,22206,17256,22202,17268,22199,17278,22198,17287,22196,17299,22194,17317,22192,17342,22188,17379,22183" />
<polygon id="path1285" points="16898,22341,16901,22373,16903,22396,16905,22411,16906,22422,16906,22432,16906,22444,16906,22460,16906,22484,16906,22518" />
<polygon id="path1287" points="16825,22433,16851,22427,16869,22423,16881,22420,16890,22418,16898,22417,16907,22416,16920,22415,16939,22415,16966,22413" />
<polygon id="path1289" points="17112,22385,17115,22408,17117,22432,17119,22455,17119,22478,17120,22502,17119,22525,17118,22548,17117,22572,17116,22595" />
<polygon id="path1291" points="17039,22490,17058,22484,17077,22479,17095,22477,17112,22475,17129,22475,17147,22477,17164,22480,17182,22484,17201,22490" />
<polygon id="path1293" points="17326,22429,17328,22453,17330,22476,17331,22499,17333,22523,17335,22546,17337,22570,17339,22593,17340,22616,17342,22640" />
<polygon id="path1295" points="17269,22551,17292,22544,17315,22538,17338,22533,17362,22530,17385,22527,17409,22524,17433,22522,17456,22520,17480,22518" />
<polygon id="path1297" points="18292,23743,18293,23772,18295,23792,18296,23805,18296,23816,18296,23825,18296,23838,18296,23855,18296,23880,18296,23916" />
<polygon id="path1299" points="18219,23856,18236,23848,18253,23841,18270,23835,18288,23829,18306,23824,18323,23819,18341,23814,18359,23808,18377,23803" />
<polygon id="path1301" points="19383,22920,19387,22934,19390,22943,19392,22949,19393,22955,19393,22962,19393,22972,19394,22987,19395,23009,19397,23040" />
<polygon id="path1303" points="19323,23006,19339,23004,19354,23003,19370,23001,19386,23000,19402,22999,19418,22998,19434,22997,19450,22996,19466,22994" />
<polygon id="path1305" points="19123,24334,19130,24352,19134,24364,19136,24373,19138,24380,19138,24390,19139,24403,19141,24423,19144,24453,19148,24494" />
<polygon id="path1307" points="19077,24423,19099,24422,19114,24421,19125,24420,19133,24420,19140,24419,19150,24419,19163,24418,19183,24416,19211,24414" />
<polygon id="path1309" points="18731,24197,18732,24226,18733,24246,18734,24260,18734,24269,18734,24278,18735,24288,18735,24301,18736,24320,18737,24349" />
<polygon id="path1311" points="18683,24266,18697,24263,18712,24260,18727,24259,18742,24258,18757,24257,18772,24257,18787,24257,18802,24257,18817,24257" />
<polygon id="path1313" points="18663,24706,18665,24739,18666,24761,18667,24777,18668,24788,18668,24797,18669,24808,18669,24822,18670,24842,18671,24871" />
<polygon id="path1315" points="18597,24797,18624,24795,18642,24794,18655,24794,18664,24793,18670,24793,18676,24792,18684,24791,18695,24789,18711,24786" />
<polygon id="path1317" points="18200,24374,18200,24387,18200,24395,18200,24400,18201,24405,18201,24411,18202,24421,18204,24435,18206,24456,18208,24486" />
<polygon id="path1319" points="18137,24443,18154,24446,18171,24448,18188,24450,18205,24450,18223,24450,18240,24449,18257,24448,18274,24447,18291,24446" />
<polygon id="path1321" points="17688,24303,17689,24319,17690,24336,17691,24352,17692,24369,17693,24385,17694,24402,17695,24418,17696,24435,17697,24451" />
<polygon id="path1323" points="17623,24371,17638,24371,17653,24370,17668,24369,17682,24368,17697,24368,17712,24367,17727,24367,17742,24368,17757,24369" />
<polygon id="path1325" points="16940,24643,16946,24669,16950,24687,16952,24699,16954,24708,16955,24717,16956,24727,16957,24741,16958,24762,16960,24791" />
<polygon id="path1327" points="16888,24737,16917,24734,16937,24732,16951,24731,16960,24730,16968,24729,16976,24728,16987,24728,17003,24727,17026,24726" />
<polygon id="path1329" points="17077,25546,17077,25560,17077,25570,17077,25577,17077,25583,17077,25589,17078,25599,17078,25614,17079,25635,17080,25666" />
<polygon id="path1331" points="17011,25609,17028,25609,17045,25609,17062,25608,17079,25607,17096,25606,17112,25605,17129,25603,17146,25602,17163,25600" />
<polygon id="path1333" points="17986,25189,17989,25215,17992,25233,17993,25245,17994,25254,17995,25263,17995,25273,17996,25287,17996,25308,17997,25337" />
<polygon id="path1335" points="17917,25280,17948,25278,17970,25277,17985,25276,17995,25275,18004,25274,18014,25273,18028,25272,18048,25269,18077,25266" />
<polygon id="path1337" points="21043,25051,21043,25069,21043,25086,21043,25104,21043,25121,21043,25139,21043,25156,21043,25174,21043,25191,21043,25209" />
<polygon id="path1339" points="20986,25154,21002,25152,21018,25149,21034,25146,21050,25144,21067,25141,21083,25139,21099,25136,21115,25134,21131,25131" />
<polygon id="path1341" points="16586,23771,16589,23799,16591,23818,16592,23831,16593,23840,16593,23849,16593,23859,16594,23873,16595,23894,16596,23923" />
<polygon id="path1343" points="16538,23875,16563,23876,16581,23877,16593,23877,16602,23878,16610,23878,16619,23878,16632,23878,16652,23878,16680,23878" />
<polygon id="path1345" points="16434,24629,16436,24650,16437,24664,16438,24674,16439,24683,16439,24692,16440,24704,16441,24723,16442,24751,16444,24791" />
<polygon id="path1347" points="16382,24726,16403,24724,16418,24723,16428,24723,16435,24722,16443,24722,16453,24722,16467,24722,16488,24722,16518,24723" />
<polygon id="path1349" points="16386,25855,16386,25869,16386,25882,16387,25895,16387,25909,16387,25922,16388,25935,16388,25948,16388,25962,16389,25975" />
<polygon id="path1351" points="16331,25936,16347,25932,16363,25929,16380,25926,16396,25925,16413,25924,16429,25923,16446,25923,16463,25923,16479,25923" />
<polygon id="path1353" points="17910,25697,17911,25716,17913,25728,17913,25737,17914,25744,17914,25751,17914,25761,17915,25774,17915,25794,17916,25823" />
<polygon id="path1355" points="17839,25768,17856,25764,17874,25761,17892,25758,17910,25757,17928,25756,17946,25755,17964,25755,17982,25755,18000,25755" />
<polygon id="path1361" points="22324,26290,22326,26302,22327,26314,22328,26325,22329,26337,22330,26349,22330,26361,22331,26372,22331,26384,22331,26396" />
<polygon id="path1363" points="22268,26353,22291,26348,22308,26345,22319,26343,22327,26341,22333,26340,22340,26339,22350,26339,22364,26338,22384,26337" />
<polygon id="path1365" points="24024,25993,24024,26006,24024,26014,24024,26019,24024,26024,24024,26029,24024,26037,24025,26049,24026,26067,24027,26092" />
<polygon id="path1367" points="23961,26053,23976,26053,23991,26053,24006,26052,24021,26052,24036,26051,24051,26051,24066,26050,24081,26050,24096,26050" />
<polygon id="path1369" points="18658,28480,18657,28492,18657,28504,18657,28516,18657,28528,18658,28540,18659,28552,18660,28563,18660,28575,18660,28587" />
<polygon id="path1371" points="18615,28546,18626,28545,18636,28544,18647,28543,18657,28543,18668,28543,18678,28543,18689,28543,18699,28544,18710,28544" />
<polygon id="path1373" points="18454,37500,18457,37533,18459,37556,18460,37572,18461,37583,18462,37592,18462,37603,18463,37618,18464,37639,18466,37670" />
<polygon id="path1375" points="18387,37618,18414,37618,18433,37618,18446,37618,18455,37618,18465,37618,18476,37617,18493,37615,18517,37613,18552,37610" />
<polygon id="path1377" points="23565,36491,23565,36537,23565,36569,23565,36591,23565,36607,23565,36622,23566,36640,23567,36666,23569,36705,23571,36759" />
<polygon id="path1379" points="23453,36614,23497,36607,23527,36603,23547,36599,23562,36598,23576,36597,23592,36599,23614,36601,23647,36604,23693,36609" />
<polygon id="path1381" points="17854,43283,17858,43312,17861,43331,17862,43344,17863,43355,17864,43365,17865,43379,17866,43400,17868,43430,17870,43473" />
<polygon id="path1383" points="17779,43398,17809,43384,17829,43375,17843,43369,17853,43365,17863,43364,17876,43363,17895,43363,17922,43363,17961,43362" />
<polygon id="path1387" points="26126,38388,26130,38426,26134,38452,26136,38470,26137,38483,26137,38495,26138,38509,26137,38529,26137,38558,26137,38600" />
<polygon id="path1389" points="26048,38511,26068,38508,26087,38505,26107,38502,26127,38499,26147,38496,26167,38492,26187,38489,26206,38486,26226,38483" />
<polygon id="path1391" points="24501,46664,24505,46692,24507,46711,24509,46725,24510,46735,24511,46745,24511,46758,24511,46776,24512,46803,24513,46841" />
<polygon id="path1393" points="24434,46759,24453,46755,24471,46752,24489,46750,24508,46749,24526,46748,24545,46748,24563,46749,24581,46750,24600,46751" />
<polygon id="path1395" points="29968,40902,29971,40918,29975,40948,29979,40987,29983,41032,29986,41078,29988,41121,29988,41157,29986,41181,29980,41190" />
<polygon id="path1397" points="29846,41088,29890,41083,29920,41079,29941,41076,29956,41075,29969,41075,29985,41077,30006,41079,30038,41083,30083,41088" />
<polygon id="path1399" points="33965,46944,33968,46968,33970,46992,33972,47016,33974,47040,33976,47064,33977,47088,33978,47113,33979,47137,33979,47161" />
<polygon id="path1401" points="33879,47071,33904,47067,33929,47063,33954,47060,33979,47058,34005,47056,34030,47054,34055,47053,34080,47053,34105,47053" />
<polygon id="path1403" points="38813,41195,38823,41236,38829,41264,38833,41283,38836,41297,38838,41310,38839,41326,38840,41348,38842,41380,38845,41426" />
<polygon id="path1405" points="38737,41340,38761,41331,38785,41324,38810,41319,38835,41315,38861,41312,38886,41310,38912,41308,38937,41306,38963,41303" />
<polygon id="path1553" points="35821,37677,35824,37692,35826,37707,35829,37722,35831,37737,35833,37752,35835,37767,35836,37783,35837,37798,35837,37813" />
<polygon id="path1555" points="35767,37756,35791,37754,35808,37752,35819,37751,35827,37750,35834,37750,35842,37749,35853,37750,35869,37750,35891,37750" />
<polygon id="path1557" points="37935,32560,37939,32581,37941,32602,37943,32623,37944,32644,37944,32665,37944,32686,37943,32707,37942,32728,37941,32749" />
<polygon id="path1559" points="37816,32685,37840,32675,37864,32669,37888,32667,37914,32667,37939,32667,37965,32668,37990,32668,38014,32665,38037,32660" />
<polygon id="path1561" points="29446,26573,29448,26620,29449,26652,29450,26674,29451,26690,29451,26705,29451,26722,29451,26747,29451,26783,29451,26835" />
<polygon id="path1563" points="29344,26733,29368,26724,29393,26717,29417,26712,29442,26709,29467,26708,29493,26709,29518,26711,29543,26714,29568,26717" />
<polygon id="path1565" points="35779,23015,35779,23030,35779,23046,35779,23061,35779,23077,35779,23092,35779,23108,35779,23123,35779,23139,35779,23154" />
<polygon id="path1567" points="35701,23100,35718,23097,35735,23095,35752,23094,35769,23094,35786,23095,35804,23095,35821,23096,35838,23097,35855,23097" />
<polygon id="path10414" points="30956,28317,30954,28336,30952,28355,30951,28373,30950,28392,30950,28411,30950,28429,30950,28448,30950,28467,30950,28486" />
<polygon id="path10418" points="30890,28408,30906,28404,30921,28403,30936,28403,30952,28404,30967,28406,30982,28409,30997,28411,31013,28413,31028,28414" />
<polygon id="path1684" points="54951,5059,54943,5096,54939,5153,54937,5224,54938,5302,54938,5381,54938,5454,54936,5515,54930,5556,54920,5571" />
<polygon id="path1686" points="54755,5330,54801,5342,54847,5351,54894,5358,54941,5364,54988,5370,55035,5374,55082,5379,55129,5385,55176,5391" />
<polygon id="path1688" points="54392,8667,54397,8722,54400,8759,54403,8784,54404,8804,54404,8824,54404,8849,54403,8887,54403,8941,54403,9019" />
<polygon id="path1690" points="54264,8870,54318,8874,54355,8877,54380,8879,54399,8881,54417,8882,54439,8883,54471,8885,54517,8887,54584,8891" />
<polygon id="path1692" points="55787,9253,55787,9286,55787,9309,55787,9324,55786,9337,55785,9351,55784,9371,55782,9402,55780,9446,55776,9509" />
<polygon id="path1694" points="55680,9370,55737,9375,55776,9378,55803,9380,55823,9381,55841,9382,55864,9384,55896,9385,55943,9388,56010,9391" />
<polygon id="path1696" points="53146,10414,53150,10480,53153,10526,53155,10557,53156,10580,53157,10599,53157,10620,53157,10650,53157,10692,53157,10754" />
<polygon id="path1698" points="53008,10648,53048,10644,53088,10641,53128,10640,53168,10640,53208,10641,53248,10641,53289,10641,53329,10640,53370,10637" />
<polygon id="path1700" points="52925,12619,52931,12670,52935,12705,52938,12729,52940,12747,52942,12763,52944,12782,52946,12809,52950,12848,52955,12905" />
<polygon id="path1702" points="52827,12822,52858,12817,52889,12813,52920,12810,52951,12808,52982,12807,53013,12807,53044,12807,53075,12807,53106,12807" />
<polygon id="path1704" points="60387,12054,60389,12079,60392,12105,60394,12130,60397,12155,60399,12180,60402,12205,60404,12230,60407,12255,60410,12280" />
<polygon id="path1706" points="60327,12213,60371,12213,60401,12213,60422,12213,60437,12213,60450,12212,60464,12211,60483,12208,60512,12203,60553,12197" />
<polygon id="path1708" points="62931,14663,62935,14693,62937,14713,62939,14727,62940,14738,62942,14750,62944,14767,62947,14791,62952,14826,62958,14877" />
<polygon id="path1710" points="62841,14787,62870,14789,62898,14792,62926,14794,62955,14797,62983,14799,63011,14800,63040,14799,63068,14798,63096,14794" />
<polygon id="path1712" points="52711,15636,52712,15666,52712,15696,52713,15726,52714,15755,52715,15785,52716,15815,52715,15845,52714,15875,52711,15905" />
<polygon id="path1714" points="52594,15794,52625,15794,52656,15792,52687,15790,52718,15788,52748,15787,52779,15788,52809,15790,52840,15794,52870,15801" />
<polygon id="path1716" points="53346,17402,53349,17448,53351,17480,53352,17502,53353,17518,53353,17532,53352,17549,53351,17573,53349,17608,53346,17658" />
<polygon id="path1718" points="53215,17554,53245,17547,53276,17541,53306,17536,53337,17532,53368,17529,53399,17527,53429,17524,53460,17522,53491,17520" />
<polygon id="path1720" points="52077,19286,52085,19336,52090,19370,52094,19394,52097,19411,52098,19426,52098,19444,52098,19468,52097,19504,52097,19555" />
<polygon id="path1722" points="51973,19452,52010,19453,52047,19453,52084,19452,52120,19450,52157,19448,52194,19446,52231,19443,52268,19441,52304,19438" />
<polygon id="path1724" points="62482,18920,62482,18944,62482,18968,62482,18992,62482,19015,62482,19039,62482,19063,62482,19087,62482,19110,62482,19134" />
<polygon id="path1726" points="62358,19038,62378,19036,62401,19034,62426,19032,62451,19030,62477,19028,62502,19026,62525,19025,62547,19024,62565,19024,62586,19025,62601,19026,62610,19029,62616,19031,62620,19033,62622,19034,62625,19033,62628,19030,62634,19024" />
<polygon id="path1728" points="67547,16705,67550,16749,67552,16779,67553,16800,67554,16814,67554,16827,67553,16842,67552,16862,67550,16891,67547,16933" />
<polygon id="path1730" points="67437,16857,67464,16853,67492,16851,67519,16850,67547,16851,67575,16853,67602,16856,67630,16859,67658,16861,67685,16864" />
<polygon id="path1732" points="70471,19175,70473,19207,70475,19229,70476,19244,70476,19255,70477,19266,70478,19280,70478,19300,70479,19329,70481,19370" />
<polygon id="path1734" points="70388,19297,70415,19294,70443,19292,70470,19291,70497,19289,70524,19288,70551,19286,70578,19284,70605,19281,70632,19278" />
<polygon id="path1736" points="73326,20034,73323,20064,73322,20085,73321,20100,73320,20110,73319,20121,73318,20135,73317,20154,73314,20183,73311,20224" />
<polygon id="path1738" points="73233,20097,73259,20101,73270,20102,73272,20102,73270,20101,73268,20100,73273,20098,73290,20097,73323,20096,73379,20097,73389,20098,73398,20098,73407,20099,73416,20101,73425,20102,73435,20103,73444,20105,73453,20106,73462,20107" />
<polygon id="path1744" points="57907,31193,57920,31244,57929,31294,57934,31344,57936,31395,57936,31445,57935,31496,57933,31546,57932,31597,57931,31648" />
<polygon id="path1746" points="57772,31427,57842,31417,57890,31410,57924,31406,57948,31403,57969,31401,57994,31401,58029,31401,58079,31402,58152,31402" />
<polygon id="path1748" points="53291,34158,53291,34190,53292,34221,53292,34252,53293,34284,53294,34315,53295,34346,53296,34378,53297,34409,53297,34441" />
<polygon id="path1750" points="53193,34318,53222,34316,53251,34314,53280,34312,53310,34310,53339,34309,53368,34307,53398,34306,53427,34306,53456,34306" />
<polygon id="path1752" points="59193,33863,59188,33909,59185,33941,59184,33963,59183,33980,59183,33998,59183,34021,59183,34055,59184,34104,59184,34175" />
<polygon id="path1754" points="59054,34097,59119,34090,59164,34085,59194,34082,59217,34080,59238,34079,59262,34079,59296,34079,59346,34079,59418,34080" />
<polygon id="path1756" points="61224,38142,61218,38219,61214,38273,61211,38309,61209,38335,61207,38357,61205,38380,61201,38412,61196,38458,61189,38524" />
<polygon id="path1758" points="61068,38342,61092,38349,61117,38353,61142,38354,61168,38353,61193,38352,61218,38350,61243,38348,61268,38348,61293,38351,61349,38359,61383,38365,61400,38370,61405,38373,61402,38375,61398,38376,61397,38377,61404,38377,61424,38377" />
<polygon id="path1760" points="64032,34803,64038,34860,64041,34899,64044,34926,64045,34947,64047,34966,64048,34990,64050,35024,64053,35075,64057,35146" />
<polygon id="path1762" points="63897,34987,63995,34991,64064,34993,64110,34995,64143,34996,64167,34997,64192,34999,64224,35002,64271,35006,64339,35011" />
<polygon id="path1774" points="69500,29822,69503,29863,69506,29905,69508,29946,69510,29987,69512,30029,69515,30070,69518,30111,69522,30152,69527,30194" />
<polygon id="path1776" points="69355,30012,69395,30002,69435,29997,69474,29995,69513,29996,69552,30000,69590,30005,69629,30010,69669,30016,69709,30021" />
<polygon id="path1778" points="68133,38863,68135,38887,68137,38912,68139,38936,68141,38960,68143,38984,68146,39009,68148,39033,68150,39057,68152,39081" />
<polygon id="path1780" points="68049,39017,68098,39010,68132,39005,68155,39002,68172,38999,68186,38998,68202,38996,68223,38993,68254,38990,68300,38985" />
<polygon id="path1782" points="69724,35282,69726,35300,69727,35318,69729,35336,69730,35354,69731,35371,69733,35389,69734,35407,69736,35425,69737,35443" />
<polygon id="path1784" points="69634,35411,69661,35407,69688,35405,69715,35403,69742,35402,69769,35401,69797,35401,69824,35400,69851,35399,69878,35398" />
<polygon id="path1786" points="73239,35957,73235,35999,73233,36028,73231,36048,73229,36063,73228,36078,73226,36095,73223,36121,73218,36158,73212,36211" />
<polygon id="path1788" points="73130,36120,73187,36114,73215,36110,73222,36109,73216,36110,73207,36113,73201,36116,73208,36121,73236,36125,73294,36129,73305,36129,73316,36129,73327,36128,73338,36127,73349,36126,73360,36124,73371,36123,73382,36121,73393,36120" />
<polygon id="path1790" points="53042,43830,53044,43855,53045,43872,53046,43883,53046,43892,53047,43900,53046,43911,53046,43926,53046,43949,53046,43981" />
<polygon id="path1792" points="52990,43924,53005,43918,53020,43913,53036,43910,53052,43907,53068,43906,53084,43906,53101,43906,53117,43907,53133,43909" />
<polygon id="path1794" points="53332,44682,53335,44699,53337,44710,53337,44718,53338,44724,53339,44732,53339,44742,53340,44758,53342,44781,53344,44814" />
<polygon id="path1796" points="53265,44780,53275,44774,53282,44771,53287,44769,53292,44768,53297,44768,53305,44769,53317,44769,53335,44769,53359,44768" />
<polygon id="path1798" points="53623,46682,53626,46715,53629,46737,53630,46753,53631,46765,53632,46777,53633,46793,53634,46817,53635,46852,53638,46901" />
<polygon id="path1800" points="53532,46803,53559,46792,53586,46786,53613,46782,53641,46781,53668,46782,53696,46783,53725,46785,53753,46787,53781,46788" />
<polygon id="path1802" points="56965,45895,56968,45917,56970,45932,56972,45942,56973,45950,56974,45958,56975,45968,56977,45983,56980,46004,56983,46034" />
<polygon id="path1804" points="56912,45970,56927,45964,56942,45960,56958,45957,56974,45954,56990,45952,57007,45951,57023,45950,57039,45949,57055,45948" />
<polygon id="path1806" points="58939,47044,58942,47071,58944,47090,58946,47103,58947,47112,58947,47121,58948,47131,58948,47146,58949,47168,58950,47199" />
<polygon id="path1808" points="58860,47123,58879,47119,58898,47116,58917,47114,58936,47112,58956,47112,58975,47112,58994,47112,59014,47112,59033,47112" />
<polygon id="path1810" points="58995,44490,58995,44507,58995,44525,58995,44542,58995,44560,58995,44577,58995,44595,58995,44613,58995,44630,58995,44648" />
<polygon id="path1812" points="58931,44591,58957,44587,58976,44584,58988,44581,58997,44580,59005,44580,59014,44579,59028,44580,59047,44580,59075,44580" />
<polygon id="path1814" points="75649,36797,75653,36826,75655,36856,75657,36886,75658,36916,75658,36946,75657,36976,75657,37006,75656,37036,75656,37066" />
<polygon id="path1816" points="75553,36941,75617,36941,75663,36941,75694,36940,75715,36940,75731,36940,75746,36941,75766,36942,75794,36945,75835,36948" />
<polygon id="path1818" points="73083,47522,73096,47591,73105,47639,73111,47672,73115,47695,73117,47713,73118,47733,73118,47759,73118,47797,73118,47853" />
<polygon id="path1820" points="73001,47708,73057,47699,73097,47692,73124,47687,73142,47684,73158,47681,73173,47680,73194,47678,73225,47677,73270,47674" />
<polygon id="path1822" points="76141,41621,76143,41668,76145,41701,76146,41724,76146,41740,76146,41755,76146,41773,76146,41797,76146,41833,76146,41884" />
<polygon id="path1824" points="76029,41787,76061,41781,76093,41777,76124,41775,76156,41773,76189,41772,76221,41772,76253,41772,76285,41772,76317,41772" />
<polygon id="path1826" points="92185,37135,92188,37185,92191,37220,92192,37244,92193,37261,92194,37277,92194,37294,92194,37319,92194,37355,92193,37407" />
<polygon id="path1828" points="92070,37275,92097,37275,92125,37276,92152,37277,92180,37278,92207,37280,92235,37281,92262,37282,92290,37283,92317,37283" />
<polygon id="path1830" points="91896,35095,91896,35138,91896,35168,91896,35189,91896,35205,91897,35221,91898,35242,91900,35273,91902,35319,91904,35384" />
<polygon id="path1832" points="91764,35235,91822,35241,91862,35245,91890,35247,91909,35249,91925,35251,91942,35253,91964,35256,91997,35261,92045,35268" />
<polygon id="path1834" points="88807,34599,88814,34639,88819,34666,88823,34685,88825,34699,88826,34713,88827,34731,88828,34756,88829,34794,88832,34847" />
<polygon id="path1836" points="88675,34723,88707,34727,88739,34729,88771,34730,88803,34730,88835,34729,88867,34728,88899,34728,88932,34729,88964,34731" />
<polygon id="path1838" points="90822,31791,90820,31858,90818,31904,90817,31936,90815,31959,90813,31979,90811,32000,90806,32030,90799,32074,90789,32138" />
<polygon id="path1840" points="90707,32006,90742,32014,90775,32020,90808,32026,90840,32030,90872,32033,90904,32034,90936,32034,90970,32033,91004,32030" />
<polygon id="path1842" points="87758,31262,87760,31281,87762,31299,87764,31317,87765,31336,87767,31354,87769,31372,87771,31391,87773,31409,87775,31427" />
<polygon id="path1844" points="87667,31403,87704,31407,87741,31412,87777,31416,87814,31421,87851,31425,87888,31429,87924,31434,87961,31439,87998,31444" />
<polygon id="path1992" points="88683,33856,88682,33885,88683,33913,88686,33941,88690,33970,88695,33998,88700,34026,88704,34055,88707,34083,88708,34112" />
<polygon id="path1994" points="88592,33980,88624,33983,88656,33986,88688,33988,88721,33989,88753,33989,88785,33989,88817,33988,88849,33988,88881,33988" />
<polygon id="path1996" points="84032,31929,84037,31944,84042,31959,84047,31974,84053,31989,84058,32004,84063,32019,84068,32034,84073,32049,84078,32064" />
<polygon id="path1998" points="83938,32052,83972,32037,84005,32026,84037,32018,84070,32012,84104,32008,84137,32006,84171,32005,84206,32005,84242,32005" />
<polygon id="path2000" points="86585,28491,86590,28522,86594,28542,86596,28557,86598,28568,86599,28578,86600,28590,86601,28607,86603,28632,86606,28669" />
<polygon id="path2002" points="86507,28615,86543,28612,86568,28610,86585,28609,86597,28608,86606,28607,86617,28606,86631,28605,86651,28604,86680,28603" />
<polygon id="path2281" points="85778,26859,85780,26862,85782,26866,85784,26869,85786,26872,85788,26875,85790,26878,85791,26882,85792,26885,85793,26889,85794,26897,85794,26905,85794,26913,85794,26922,85794,26930,85793,26938,85793,26947,85793,26955,85793,26963,85794,26983,85796,27003,85798,27022,85801,27042,85803,27062,85805,27082,85806,27101,85808,27121,85808,27141" />
<polygon id="path2283" points="85674,27008,85708,27003,85741,27000,85775,26998,85809,26997,85843,26997,85877,26998,85911,26999,85945,27000,85979,27000" />
<polygon id="path2285" points="83991,25791,83994,25845,83995,25883,83997,25908,83998,25927,84001,25945,84004,25966,84009,25996,84017,26040,84028,26103" />
<polygon id="path2287" points="83865,25976,83900,25977,83936,25976,83971,25974,84006,25972,84042,25969,84077,25966,84112,25964,84148,25962,84183,25962" />
<polygon id="path2289" points="83182,22438,83184,22469,83185,22501,83187,22532,83189,22563,83190,22595,83192,22626,83194,22657,83195,22689,83197,22720" />
<polygon id="path2291" points="83071,22668,83168,22646,83219,22634,83236,22630,83230,22631,83214,22635,83200,22640,83199,22644,83224,22644,83286,22638,83305,22636,83322,22634,83339,22631,83355,22628,83371,22624,83386,22621,83402,22617,83418,22613,83434,22609" />
<polygon id="path2293" points="82544,21370,82551,21415,82556,21445,82559,21466,82561,21482,82562,21499,82564,21520,82566,21550,82569,21595,82574,21659" />
<polygon id="path2295" points="82381,21541,82431,21536,82480,21531,82530,21527,82579,21523,82629,21519,82678,21515,82727,21509,82777,21503,82826,21496" />
<polygon id="path2297" points="93463,25470,93464,25501,93465,25532,93467,25563,93468,25593,93470,25624,93471,25655,93472,25686,93473,25717,93473,25748" />
<polygon id="path2299" points="93347,25596,93376,25591,93405,25588,93434,25585,93463,25583,93493,25581,93522,25580,93551,25578,93580,25577,93609,25575" />
<polygon id="path2301" points="97305,25042,97309,25079,97311,25104,97313,25122,97314,25135,97315,25149,97315,25166,97316,25191,97318,25227,97320,25279" />
<polygon id="path2303" points="97187,25175,97220,25175,97253,25175,97286,25175,97319,25175,97352,25175,97385,25175,97418,25175,97451,25175,97483,25175" />
<polygon id="path2305" points="97450,22794,97453,22834,97455,22862,97456,22881,97457,22895,97458,22907,97458,22920,97459,22939,97460,22966,97461,23006" />
<polygon id="path2307" points="97369,22928,97402,22923,97425,22920,97441,22918,97452,22917,97462,22916,97474,22916,97490,22916,97513,22917,97547,22917" />
<polygon id="path2309" points="95146,18195,95154,18221,95161,18247,95166,18273,95169,18300,95172,18328,95173,18355,95175,18382,95176,18409,95178,18436" />
<polygon id="path2311" points="95078,18352,95100,18350,95122,18347,95144,18344,95167,18341,95189,18338,95211,18335,95233,18333,95255,18332,95277,18331,95282,18331,95287,18332,95291,18333,95296,18333,95301,18334,95305,18335,95310,18336,95315,18336,95319,18336" />
<polygon id="path2313" points="96667,15237,96677,15262,96683,15278,96686,15290,96687,15300,96686,15314,96685,15334,96683,15365,96682,15410,96683,15473" />
<polygon id="path2315" points="96583,15347,96606,15351,96630,15354,96653,15355,96677,15354,96700,15352,96724,15350,96747,15347,96770,15344,96793,15342" />
<polygon id="path2317" points="88727,22427,88727,22454,88727,22473,88727,22485,88727,22495,88728,22506,88730,22520,88732,22541,88734,22572,88738,22616" />
<polygon id="path2319" points="88619,22579,88643,22572,88667,22567,88691,22563,88715,22559,88740,22557,88765,22554,88789,22552,88814,22549,88838,22546" />
<polygon id="path2321" points="88935,21570,88938,21607,88940,21633,88941,21650,88942,21663,88943,21676,88943,21691,88944,21712,88944,21744,88946,21789" />
<polygon id="path2323" points="88827,21711,88863,21710,88888,21709,88905,21708,88917,21708,88928,21708,88941,21708,88959,21709,88986,21710,89024,21711" />
<polygon id="path2325" points="85672,14787,85680,14831,85686,14861,85690,14882,85692,14898,85694,14914,85695,14933,85697,14962,85699,15004,85703,15063" />
<polygon id="path2327" points="85565,14894,85601,14889,85637,14887,85673,14887,85709,14889,85744,14893,85780,14898,85815,14904,85851,14911,85886,14919" />
<polygon id="path2329" points="91516,15957,91518,15984,91519,16011,91519,16039,91518,16066,91516,16093,91514,16120,91511,16147,91509,16175,91507,16202" />
<polygon id="path2331" points="91422,16095,91446,16091,91470,16088,91493,16087,91517,16085,91541,16085,91565,16084,91588,16084,91612,16083,91636,16082" />
<polygon id="path2333" points="92094,15134,92096,15172,92097,15198,92098,15216,92099,15230,92098,15242,92098,15257,92097,15278,92096,15308,92094,15352" />
<polygon id="path2335" points="91983,15281,92027,15278,92058,15275,92079,15273,92094,15272,92107,15272,92122,15273,92142,15275,92172,15278,92214,15281" />
<polygon id="path2337" points="88416,12968,88423,13022,88429,13059,88433,13085,88436,13102,88437,13116,88438,13129,88438,13145,88438,13169,88438,13204" />
<polygon id="path2339" points="88363,13115,88398,13114,88423,13113,88440,13112,88452,13111,88462,13111,88472,13110,88486,13109,88507,13108,88536,13106" />
<polygon id="path2341" points="93006,8289,93012,8320,93016,8350,93019,8381,93020,8412,93020,8443,93020,8473,93019,8504,93019,8535,93018,8566" />
<polygon id="path2343" points="92911,8447,92947,8440,92982,8435,93018,8431,93054,8429,93089,8428,93125,8427,93160,8427,93196,8428,93232,8428" />
<polygon id="path2345" points="91647,8044,91653,8083,91657,8110,91660,8128,91661,8142,91662,8157,91663,8176,91663,8203,91664,8244,91666,8302" />
<polygon id="path2347" points="91540,8239,91579,8223,91618,8210,91658,8201,91699,8195,91740,8191,91781,8189,91822,8189,91864,8189,91905,8189" />
<polygon id="path2349" points="79407,18932,79415,18990,79420,19030,79424,19057,79426,19078,79428,19097,79431,19119,79434,19151,79438,19198,79445,19265" />
<polygon id="path2351" points="79319,19095,79375,19088,79414,19083,79440,19080,79459,19078,79475,19076,79491,19075,79514,19074,79548,19072,79596,19070" />
<polygon id="path2353" points="75041,15847,75044,15873,75047,15899,75050,15926,75052,15952,75053,15978,75055,16004,75057,16030,75059,16056,75062,16082" />
<polygon id="path2355" points="74968,15968,74989,15965,75010,15963,75032,15961,75053,15960,75075,15959,75096,15958,75118,15957,75139,15957,75161,15957" />
<polygon id="path2357" points="75620,12537,75624,12565,75627,12593,75631,12620,75634,12648,75638,12676,75641,12704,75645,12732,75648,12760,75652,12787" />
<polygon id="path2359" points="75547,12678,75574,12673,75601,12670,75627,12667,75654,12664,75681,12661,75707,12658,75734,12655,75761,12651,75787,12646" />
<polygon id="path2361" points="75906,8854,75911,8920,75915,8966,75917,8997,75919,9019,75920,9035,75921,9049,75921,9068,75921,9095,75921,9134" />
<polygon id="path2363" points="75832,9001,75876,8996,75907,8993,75928,8990,75943,8988,75954,8987,75965,8987,75979,8986,76001,8987,76032,8987" />
<polygon id="path2365" points="77907,7369,77907,7409,77907,7435,77907,7454,77907,7468,77907,7482,77906,7499,77904,7524,77902,7561,77900,7613" />
<polygon id="path2367" points="77804,7488,77838,7493,77873,7497,77907,7500,77942,7502,77976,7504,78011,7506,78045,7508,78079,7512,78114,7517" />
<polygon id="path2369" points="74101,6318,74104,6347,74106,6376,74108,6405,74109,6434,74110,6463,74111,6492,74111,6521,74111,6550,74111,6579" />
<polygon id="path2371" points="74012,6454,74040,6450,74068,6447,74097,6446,74126,6446,74155,6447,74184,6449,74212,6453,74240,6458,74268,6464" />
<polygon id="path2373" points="71911,12982,71913,13010,71914,13030,71915,13043,71915,13054,71917,13064,71918,13077,71921,13096,71924,13123,71929,13163" />
<polygon id="path2375" points="71852,13092,71881,13091,71901,13090,71915,13089,71925,13089,71932,13089,71940,13089,71951,13089,71966,13089,71988,13089" />
<polygon id="path2377" points="71051,10375,71059,10399,71065,10416,71068,10427,71071,10436,71072,10445,71073,10456,71074,10472,71077,10496,71080,10530" />
<polygon id="path2379" points="70999,10467,71018,10463,71038,10460,71058,10457,71077,10454,71097,10451,71117,10449,71137,10446,71156,10444,71176,10441" />
<polygon id="path2381" points="70220,9707,70223,9732,70226,9750,70227,9762,70228,9771,70229,9781,70230,9793,70231,9810,70232,9836,70235,9873" />
<polygon id="path2383" points="70153,9795,70185,9794,70208,9793,70223,9792,70234,9791,70245,9791,70258,9791,70276,9791,70303,9791,70342,9792" />
<polygon id="path2385" points="67287,8151,67288,8178,67289,8206,67290,8234,67291,8262,67292,8290,67293,8318,67295,8346,67296,8373,67297,8401" />
<polygon id="path2387" points="67182,8281,67207,8283,67232,8285,67257,8285,67282,8285,67307,8285,67332,8284,67356,8284,67381,8285,67407,8286" />
<polygon id="path2389" points="64477,7555,64484,7589,64488,7612,64491,7628,64493,7640,64494,7651,64496,7664,64497,7682,64500,7710,64503,7749" />
<polygon id="path2391" points="64368,7670,64398,7668,64429,7666,64460,7665,64491,7663,64521,7662,64552,7661,64583,7660,64614,7660,64644,7660" />
<polygon id="path13031" points="51365,37436,51372,37489,51376,37515,51377,37523,51376,37519,51374,37513,51371,37511,51368,37521,51366,37551,51365,37609,51366,37623,51367,37636,51368,37648,51370,37660,51371,37671,51373,37683,51374,37695,51375,37708,51376,37722" />
<polygon id="path13033" points="51253,37579,51282,37579,51310,37580,51338,37581,51367,37583,51395,37584,51423,37586,51451,37588,51480,37589,51508,37589" />
<polygon id="rect9687" points="0,0,377,0,377,377,0,377,0,0" />
<polygon id="rect9687-3" points="106952,55176,107330,55176,107330,55554,106952,55554,106952,55176" /></svg>